<svg width="704" height="704" xmlns="http://www.w3.org/2000/svg" xmlns:xlink="http://www.w3.org/1999/xlink" xml:space="preserve" overflow="hidden"><g transform="translate(-3975 -1056)"><path d="M4327 1056C4520.6 1056 4679 1214.4 4679 1408 4679 1601.6 4520.6 1760 4327 1760 4133.4 1760 3975 1601.6 3975 1408 3975 1214.4 4133.4 1056 4327 1056" fill="#8700E4" fill-rule="evenodd"/><path d="M4147.35 1364.95 4147.35 1188.35C4147.35 1175.29 4157.96 1164.7 4171.01 1164.7L4417.24 1164.7C4423.53 1164.7 4429.54 1167.2 4433.98 1171.66L4499.71 1237.39C4504.15 1241.82 4506.65 1247.83 4506.65 1254.11L4506.65 1364.95 4527.07 1364.95C4538.26 1364.95 4547.34 1374.03 4547.34 1385.23L4547.34 1564.7C4547.34 1575.89 4538.26 1584.96 4527.07 1584.96L4506.65 1584.96 4506.65 1627.65C4506.65 1640.71 4496.04 1651.3 4483 1651.3L4171.01 1651.3C4157.96 1651.3 4147.35 1640.71 4147.35 1627.65L4147.35 1584.96 4126.94 1584.96C4115.74 1584.96 4106.66 1575.89 4106.66 1564.7L4106.66 1385.23C4106.66 1374.03 4115.74 1364.95 4126.94 1364.95L4147.35 1364.95" fill="#FFFFFE" fill-rule="evenodd"/><path d="M4410.47 1198.49 4181.14 1198.49 4181.14 1385.23C4181.14 1390.82 4176.6 1395.36 4171.01 1395.36 4165.41 1395.36 4160.87 1390.82 4160.87 1385.23L4160.87 1188.35C4160.87 1182.76 4165.41 1178.21 4171.01 1178.21L4417.24 1178.21C4419.94 1178.21 4422.52 1179.31 4424.43 1181.21L4490.15 1246.94C4492.06 1248.85 4493.13 1251.42 4493.13 1254.11L4493.13 1385.23C4493.13 1390.82 4488.59 1395.36 4483 1395.36 4477.4 1395.36 4472.86 1390.82 4472.86 1385.23L4472.86 1260.86 4450.12 1260.86C4439.21 1260.86 4429.29 1256.41 4422.11 1249.22 4414.94 1242.04 4410.47 1232.14 4410.47 1221.23ZM4181.14 1617.51 4472.86 1617.51 4472.86 1564.7C4472.86 1559.09 4477.4 1554.56 4483 1554.56 4488.59 1554.56 4493.13 1559.09 4493.13 1564.7L4493.13 1627.65C4493.13 1633.24 4488.59 1637.79 4483 1637.79L4171.01 1637.79C4165.41 1637.79 4160.87 1633.24 4160.87 1627.65L4160.87 1564.7C4160.87 1559.09 4165.41 1554.56 4171.01 1554.56 4176.6 1554.56 4181.14 1559.09 4181.14 1564.7L4181.14 1617.51" fill="#26154F" fill-rule="evenodd"/><path d="M4228.89 1294.64 4425.11 1294.64 4425.11 1311.54 4228.89 1311.54 4228.89 1294.64" fill="#26154F" fill-rule="evenodd"/><path d="M4228.89 1334.74 4425.11 1334.74 4425.11 1351.63 4228.89 1351.63 4228.89 1334.74" fill="#26154F" fill-rule="evenodd"/><path d="M4228.89 1254.55 4367.63 1254.55 4367.63 1271.45 4228.89 1271.45 4228.89 1254.55" fill="#26154F" fill-rule="evenodd"/><path d="M4214.31 1517.85 4214.31 1432.08 4242.1 1432.08C4252.62 1432.08 4259.49 1432.51 4262.69 1433.37 4267.61 1434.65 4271.74 1437.44 4275.04 1441.76 4278.37 1446.07 4280.02 1451.65 4280.02 1458.45 4280.02 1463.72 4279.06 1468.16 4277.15 1471.74 4275.23 1475.33 4272.82 1478.14 4269.86 1480.21 4266.93 1482.24 4263.92 1483.6 4260.89 1484.25 4256.75 1485.08 4250.77 1485.5 4242.92 1485.5L4231.63 1485.5 4231.63 1517.85ZM4294.18 1432.08 4325.83 1432.08C4332.96 1432.08 4338.39 1432.62 4342.15 1433.71 4347.18 1435.19 4351.5 1437.83 4355.07 1441.62 4358.66 1445.39 4361.4 1450.03 4363.27 1455.5 4365.13 1460.99 4366.07 1467.73 4366.07 1475.78 4366.07 1482.84 4365.19 1488.92 4363.43 1494.04 4361.3 1500.27 4358.25 1505.33 4354.25 1509.18 4351.25 1512.11 4347.19 1514.39 4342.09 1516.03 4338.28 1517.25 4333.16 1517.85 4326.75 1517.85L4294.18 1517.85ZM4380.87 1517.85 4380.87 1432.08 4439.69 1432.08 4439.69 1446.59 4398.2 1446.59 4398.2 1466.88 4434.01 1466.88 4434.01 1481.39 4398.2 1481.39 4398.2 1517.85ZM4181.14 1571.45 4527.07 1571.45C4530.8 1571.45 4533.82 1568.43 4533.82 1564.7L4533.82 1385.23C4533.82 1381.49 4530.8 1378.47 4527.07 1378.47L4126.94 1378.47C4123.2 1378.47 4120.18 1381.49 4120.18 1385.23L4120.18 1564.7C4120.18 1568.43 4123.2 1571.45 4126.94 1571.45L4181.14 1571.45" fill="#26154F" fill-rule="evenodd"/><path d="M4231.63 1446.59 4231.63 1470.91 4241.1 1470.91C4247.93 1470.91 4252.51 1470.48 4254.79 1469.58 4257.09 1468.67 4258.89 1467.28 4260.21 1465.36 4261.5 1463.44 4262.17 1461.22 4262.17 1458.69 4262.17 1455.58 4261.25 1453.01 4259.4 1450.97 4257.6 1448.95 4255.26 1447.67 4252.46 1447.17 4250.38 1446.77 4246.23 1446.59 4240 1446.59L4231.63 1446.59" fill="#26154F" fill-rule="evenodd"/><path d="M4311.5 1446.59 4311.5 1503.38 4324.42 1503.38C4329.24 1503.38 4332.74 1503.12 4334.9 1502.57 4337.69 1501.87 4340.04 1500.69 4341.89 1499.02 4343.74 1497.34 4345.25 1494.56 4346.42 1490.72 4347.58 1486.88 4348.18 1481.64 4348.18 1475.01 4348.18 1468.38 4347.58 1463.31 4346.42 1459.76 4345.25 1456.19 4343.6 1453.42 4341.5 1451.44 4339.39 1449.44 4336.72 1448.1 4333.48 1447.41 4331.06 1446.85 4326.33 1446.59 4319.27 1446.59L4311.5 1446.59" fill="#26154F" fill-rule="evenodd"/></g></svg>