<svg width="1072" height="811" xmlns="http://www.w3.org/2000/svg" xmlns:xlink="http://www.w3.org/1999/xlink" xml:space="preserve" overflow="hidden"><defs><clipPath id="clip0"><rect x="2488" y="2227" width="1072" height="811"/></clipPath></defs><g clip-path="url(#clip0)" transform="translate(-2488 -2227)"><path d="M912.485 330.021C911.715 330.021 910.962 330.075 910.213 330.16 907.059 330.299 903.98 330.682 900.985 331.255 900.985 331.309 900.992 331.36 900.992 331.414 900.958 345.461 897.984 358.555 892.168 370.411 885.148 384.696 874.35 395.823 860.95 402.595 858.929 403.619 856.772 404.44 854.565 405.162L854.565 411.029C855.551 414.499 856.84 417.904 858.458 421.203 862.809 430.085 869.924 438.445 880.03 443.539 884.157 445.645 888.78 446.56 892.72 446.56 892.795 446.56 892.86 446.56 892.934 446.557 903.061 446.258 908.758 442.799 914.255 440.1 930.14 431.452 945.096 420.725 969.405 420.613 973.261 420.613 977.348 420.902 981.753 421.559 992.961 423.245 1003.41 415.526 1005.1 404.321 1006.78 393.106 999.062 382.668 987.854 380.982 981.441 380.016 975.296 379.578 969.409 379.578 944.438 379.531 924.799 387.66 911.095 394.91 904.577 398.346 899.252 401.578 895.535 403.579 895.444 403.409 895.349 403.226 895.25 403.039 894.626 401.805 894.084 400.228 893.701 398.458L898.872 395.219C901.623 393.652 904.885 391.797 908.463 389.918 928.784 379.161 948.664 373.935 969.202 373.935 975.733 373.935 982.224 374.43 988.695 375.403 995.43 376.417 1001.16 379.948 1005.14 384.875 1011.71 387.775 1017.47 390.864 1022.74 393.835 1023.59 394.317 1024.4 394.785 1025.19 395.233L1030.36 398.475C1029.98 400.242 1029.43 401.812 1028.8 403.046 1028.71 403.233 1028.61 403.409 1028.52 403.579 1026.27 402.354 1023.32 400.676 1019.97 398.756 1016.93 397.043 1013.49 395.151 1009.67 393.242 1010.88 396.976 1011.31 401.028 1010.68 405.169 1008.82 417.544 998.208 426.935 985.799 427.406 992.524 430.329 998.638 433.829 1004.66 437.268 1008.14 439.235 1011.6 441.188 1015.63 442.969 1019.67 444.678 1024.44 446.503 1031.13 446.581 1031.19 446.581 1031.25 446.581 1031.3 446.581 1035.27 446.581 1039.9 445.662 1044.03 443.559 1054.15 438.448 1061.25 430.092 1065.6 421.22 1070 412.271 1071.98 402.585 1072 392.791 1071.96 378.374 1067.64 363.266 1057.21 350.816 1047.53 339.075 1031.82 330.957 1013.85 330.177 1013.1 330.092 1012.35 330.038 1011.58 330.038L912.485 330.038Z" fill="#8700E4" transform="matrix(1 0 0 1.00027 2488 2227.81)"/><path d="M1031.41 505.305 1031.41 452.2C1031.37 452.2 1031.34 452.207 1031.3 452.207L1031.27 452.207 1031.07 452.207C1023.45 452.115 1017.98 450.067 1013.43 448.151 1008.96 446.177 1005.2 444.044 1001.88 442.158L1000.54 441.392C994.291 437.828 987.841 434.138 980.773 431.36 977.748 430.167 975.092 428.454 972.82 426.385 971.684 426.331 970.541 426.253 969.412 426.253 950.017 426.345 937.242 433.595 923.721 441.266 921.469 442.545 919.224 443.817 916.965 445.051L915.018 446.028C909.847 448.643 903.4 451.888 893.107 452.193L893.022 452.193 892.731 452.193C892.707 452.193 892.687 452.19 892.663 452.19L892.663 505.305 875.486 715.937 879.535 765.61C880.295 774.878 878.46 783.757 874.712 791.598 879.698 800.503 888.881 806.845 899.815 807.737 917.27 809.158 932.575 796.169 934 778.711L953.052 545.089 971.016 545.089 990.069 778.711C991.486 796.173 1006.8 809.161 1024.25 807.737 1041.71 806.316 1054.7 791.014 1053.29 773.552L1031.41 505.305Z" fill="#8700E4" transform="matrix(1 0 0 1.00027 2488 2227.81)"/><path d="M1019.75 257.694C1019.75 289.566 993.908 315.404 962.036 315.404 930.163 315.404 904.326 289.566 904.326 257.694 904.326 225.821 930.163 199.983 962.036 199.983 993.908 199.983 1019.75 225.821 1019.75 257.694Z" fill="#8700E4" transform="matrix(1 0 0 1.00027 2488 2227.81)"/><path d="M864.922 766.804 839.911 460.105 839.911 399.4C839.87 399.4 839.833 399.407 839.792 399.407L839.751 399.407 839.527 399.407C830.805 399.302 824.551 396.962 819.366 394.771 814.245 392.513 809.948 390.074 806.153 387.917L804.624 387.042C797.478 382.969 790.106 378.747 782.024 375.573 778.565 374.21 775.53 372.249 772.928 369.886 771.63 369.825 770.324 369.737 769.032 369.737 746.863 369.842 732.249 378.13 716.792 386.903 714.221 388.365 711.651 389.817 709.07 391.227L706.845 392.343C700.93 395.331 693.558 399.041 681.793 399.39L681.695 399.39 681.362 399.39C681.339 399.39 681.312 399.387 681.291 399.387L681.291 460.095 665.318 655.921 673.562 756.996C674.634 770.168 671.212 782.655 664.653 793.059 670.663 800.219 679.416 805.068 689.464 805.889 709.422 807.513 726.922 792.663 728.549 772.701L750.332 505.6 770.87 505.6 792.656 772.701C794.28 792.663 811.786 807.513 831.734 805.889 851.689 804.258 866.553 786.765 864.922 766.804Z" fill="#8700E4" transform="matrix(1 0 0 1.00027 2488 2227.81)"/><path d="M826.576 177.017C826.576 213.456 797.036 242.996 760.598 242.996 724.159 242.996 694.619 213.456 694.619 177.017 694.619 140.578 724.159 111.039 760.598 111.039 797.036 111.039 826.576 140.578 826.576 177.017Z" fill="#8700E4" transform="matrix(1 0 0 1.00027 2488 2227.81)"/><path d="M688.169 299.963C680.047 316.482 667.563 329.346 652.065 337.18 649.721 338.367 647.236 339.364 644.678 340.201L644.678 368.499C649.718 376.906 657.036 384.55 666.848 389.494 671.572 391.902 676.849 392.95 681.359 392.95 681.437 392.95 681.519 392.95 681.596 392.947 693.174 392.604 699.693 388.65 705.977 385.56 724.141 375.675 741.23 363.412 769.028 363.286 773.434 363.286 778.104 363.612 783.143 364.365 795.952 366.291 807.903 357.467 809.823 344.654 811.749 331.832 802.928 319.897 790.109 317.971 782.784 316.866 775.757 316.364 769.025 316.364 740.477 316.309 718.023 325.605 702.352 333.894 694.907 337.821 688.807 341.517 684.567 343.803 684.455 343.606 684.35 343.399 684.235 343.186 683.526 341.772 682.902 339.971 682.468 337.946L688.383 334.243C691.523 332.449 695.257 330.329 699.35 328.179 722.581 315.882 745.306 309.907 768.788 309.907 776.259 309.907 783.679 310.47 791.076 311.582 798.77 312.742 805.326 316.777 809.87 322.41 817.385 325.727 823.978 329.254 830.001 332.656 830.968 333.205 831.897 333.741 832.796 334.253L838.71 337.956C838.269 339.974 837.645 341.772 836.93 343.186 836.825 343.396 836.716 343.6 836.611 343.793 834.033 342.396 830.662 340.473 826.834 338.279 823.361 336.318 819.42 334.155 815.052 331.971 816.443 336.24 816.921 340.876 816.209 345.607 814.072 359.759 801.945 370.489 787.755 371.032 795.447 374.372 802.436 378.374 809.324 382.308 813.299 384.557 817.246 386.792 821.862 388.826 826.478 390.78 831.931 392.862 839.589 392.954 839.656 392.954 839.714 392.954 839.782 392.954 844.319 392.954 849.613 391.902 854.334 389.501 865.905 383.658 874.014 374.105 878.999 363.961 884.018 353.729 886.29 342.653 886.318 331.455 886.27 314.973 881.322 297.698 869.395 283.464 858.336 270.038 840.368 260.759 819.82 259.871 818.969 259.773 818.108 259.712 817.233 259.712L703.935 259.712C703.057 259.712 702.199 259.773 701.348 259.871 700.29 259.918 699.248 260.003 698.207 260.091 697.529 274.362 694.168 287.734 688.169 299.963Z" fill="#8700E4" transform="matrix(1 0 0 1.00027 2488 2227.81)"/><path d="M192.472 765.61 196.524 715.903 179.344 505.295 179.344 452.19C179.323 452.19 179.303 452.193 179.283 452.193L178.991 452.193 178.906 452.193C168.614 451.888 162.17 448.643 156.995 446.028L155.048 445.051C152.79 443.817 150.538 442.545 148.293 441.266 134.768 433.595 121.99 426.345 102.601 426.253 101.469 426.253 100.329 426.331 99.1897 426.385 96.9175 428.451 94.2621 430.167 91.2404 431.36 84.1661 434.134 77.7157 437.828 71.4689 441.392L70.1259 442.158C66.8126 444.044 63.0516 446.177 58.5751 448.151 54.0375 450.07 48.5673 452.115 40.9368 452.207L40.7435 452.207 40.7028 452.207C40.6688 452.207 40.6383 452.2 40.6044 452.2L40.6044 505.295 18.7201 773.556C17.3026 791.014 30.3049 806.316 47.7601 807.74 65.2119 809.161 80.5204 796.173 81.938 778.714L100.997 545.092 118.954 545.092 138.014 778.714C139.431 796.176 154.743 809.165 172.191 807.74 183.128 806.849 192.312 800.51 197.297 791.604 193.547 783.76 191.712 774.882 192.472 765.61Z" fill="#8700E4" transform="matrix(1 0 0 1.00027 2488 2227.81)"/><path d="M167.684 257.694C167.684 289.566 141.847 315.404 109.974 315.404 78.1016 315.404 52.2638 289.566 52.2638 257.694 52.2638 225.821 78.1016 199.983 109.974 199.983 141.847 199.983 167.684 225.821 167.684 257.694Z" fill="#8700E4" transform="matrix(1 0 0 1.00027 2488 2227.81)"/><path d="M0 392.774C0.020348 402.568 2.01445 412.257 6.39944 421.203 10.7641 430.075 17.8587 438.431 27.9717 443.542 32.1125 445.641 36.7349 446.564 40.7028 446.564 40.7638 446.564 40.8147 446.564 40.8757 446.564 47.5736 446.486 52.335 444.661 56.3741 442.952 60.4132 441.171 63.8723 439.218 67.3417 437.251 73.3681 433.809 79.4792 430.312 86.2076 427.389 73.7954 426.918 63.1873 417.531 61.3288 405.152 60.7048 401.011 61.1254 396.959 62.3395 393.225 58.5208 395.134 55.0718 397.03 52.0298 398.743 48.686 400.662 45.7389 402.344 43.4803 403.565 43.3887 403.395 43.2937 403.219 43.2022 403.033 42.5782 401.798 42.0288 400.225 41.6422 398.458L46.8173 395.219C47.6075 394.771 48.4146 394.303 49.2625 393.822 54.536 390.848 60.3046 387.761 66.8771 384.862 70.8483 379.934 76.5797 376.404 83.3148 375.39 89.7787 374.417 96.2765 373.921 102.808 373.921 123.35 373.921 143.219 379.147 163.54 389.905 167.118 391.784 170.391 393.639 173.131 395.205L178.309 398.448C177.926 400.218 177.384 401.791 176.76 403.026 176.661 403.212 176.566 403.392 176.468 403.565 172.758 401.564 167.427 398.332 160.908 394.897 147.211 387.646 127.565 379.517 102.595 379.565 96.714 379.565 90.5587 380.005 84.1525 380.969 72.9374 382.654 65.2289 393.093 66.911 404.308 68.5931 415.513 79.0452 423.231 90.2467 421.546 94.6588 420.888 98.7454 420.6 102.595 420.6 126.91 420.712 141.859 431.438 157.751 440.086 163.242 442.786 168.946 446.245 179.072 446.543 179.144 446.547 179.212 446.547 179.286 446.547 183.227 446.547 187.842 445.631 191.976 443.525 202.083 438.435 209.191 430.072 213.549 421.19 215.166 417.887 216.455 414.482 217.442 411.009L217.442 405.152C215.238 404.43 213.077 403.606 211.056 402.585 197.65 395.812 186.852 384.689 179.832 370.401 174.016 358.545 171.049 345.448 171.015 331.404 171.015 331.35 171.021 331.299 171.021 331.245 168.023 330.675 164.944 330.289 161.787 330.149 161.037 330.065 160.284 330.01 159.515 330.01L60.4267 330.01C59.6603 330.01 58.9074 330.065 58.1647 330.149 40.1907 330.93 24.4718 339.045 14.8032 350.789 4.37143 363.245 0.040696 378.357 0 392.774Z" fill="#8700E4" transform="matrix(1 0 0 1.00027 2488 2227.81)"/><path d="M398.454 756.999 406.699 655.914 390.725 460.095 390.725 399.387C390.702 399.387 390.675 399.39 390.654 399.39L390.322 399.39 390.224 399.39C378.452 399.041 371.086 395.331 365.172 392.343L362.947 391.227C360.363 389.817 357.792 388.362 355.218 386.903 339.757 378.13 325.154 369.842 302.985 369.737 301.689 369.737 300.387 369.828 299.088 369.886 296.487 372.246 293.452 374.21 289.996 375.573 281.915 378.747 274.535 382.969 267.396 387.042L265.86 387.917C262.072 390.074 257.765 392.513 252.651 394.771 247.465 396.962 241.205 399.302 232.483 399.407L232.265 399.407 232.218 399.407C232.181 399.407 232.14 399.4 232.106 399.4L232.106 460.095 207.088 766.804C205.464 786.765 220.328 804.258 240.279 805.885 260.237 807.51 277.743 792.659 279.364 772.698L301.147 505.597 321.685 505.597 343.471 772.698C345.098 792.659 362.601 807.51 382.549 805.885 392.601 805.065 401.35 800.219 407.36 793.059 400.804 782.658 397.379 770.171 398.454 756.999Z" fill="#8700E4" transform="matrix(1 0 0 1.00027 2488 2227.81)"/><path d="M377.391 177.017C377.391 213.456 347.851 242.996 311.412 242.996 274.974 242.996 245.434 213.456 245.434 177.017 245.434 140.578 274.974 111.039 311.412 111.039 347.851 111.039 377.391 140.578 377.391 177.017Z" fill="#8700E4" transform="matrix(1 0 0 1.00027 2488 2227.81)"/><path d="M185.682 331.455C185.703 342.653 187.981 353.729 192.994 363.961 197.983 374.105 206.095 383.658 217.662 389.501 222.39 391.902 227.684 392.954 232.215 392.954 232.279 392.954 232.347 392.954 232.408 392.954 240.066 392.862 245.515 390.776 250.141 388.826 254.75 386.792 258.704 384.557 262.679 382.308 269.567 378.374 276.556 374.372 284.248 371.032 270.052 370.493 257.924 359.763 255.795 345.607 255.082 340.876 255.561 336.24 256.951 331.971 252.586 334.155 248.646 336.318 245.17 338.279 241.334 340.473 237.97 342.396 235.392 343.793 235.28 343.6 235.179 343.396 235.067 343.186 234.351 341.772 233.727 339.978 233.286 337.956L239.208 334.253C240.11 333.741 241.029 333.205 242.002 332.656 248.028 329.258 254.621 325.727 262.133 322.41 266.674 316.777 273.229 312.738 280.928 311.582 288.321 310.47 295.744 309.907 303.209 309.907 326.697 309.907 349.416 315.882 372.653 328.179 376.74 330.329 380.477 332.449 383.614 334.243L389.535 337.95C389.094 339.971 388.474 341.772 387.761 343.186 387.656 343.399 387.544 343.603 387.436 343.803 383.19 341.514 377.096 337.821 369.645 333.894 353.98 325.605 331.526 316.313 302.971 316.364 296.25 316.364 289.213 316.866 281.887 317.971 269.072 319.894 260.247 331.832 262.174 344.654 264.1 357.467 276.044 366.291 288.853 364.365 293.9 363.612 298.569 363.286 302.968 363.286 330.767 363.412 347.862 375.675 366.026 385.56 372.307 388.65 378.822 392.604 390.403 392.947 390.488 392.95 390.569 392.95 390.647 392.95 395.151 392.95 400.438 391.902 405.159 389.494 414.967 384.55 422.282 376.906 427.321 368.499L427.321 340.198C424.744 339.354 422.238 338.343 419.877 337.139 404.423 329.353 391.94 316.489 383.831 299.963 377.821 287.721 374.461 274.325 373.782 260.091 372.741 260.003 371.697 259.915 370.642 259.871 369.791 259.773 368.929 259.712 368.051 259.712L254.76 259.712C253.882 259.712 253.02 259.773 252.173 259.871 231.625 260.763 213.661 270.042 202.605 283.464 190.678 297.698 185.73 314.973 185.682 331.455Z" fill="#8700E4" transform="matrix(1 0 0 1.00027 2488 2227.81)"/><path d="M656.653 758.373 627.729 403.711 627.729 333.48C627.681 333.48 627.637 333.487 627.59 333.487L627.542 333.487 627.284 333.487C617.195 333.364 609.965 330.658 603.962 328.121 598.048 325.51 593.073 322.689 588.688 320.199L586.914 319.185C578.653 314.475 570.13 309.595 560.777 305.925 556.779 304.348 553.269 302.079 550.26 299.349 548.758 299.278 547.249 299.173 545.753 299.173 520.112 299.295 503.223 308.879 485.344 319.026 482.369 320.718 479.395 322.394 476.407 324.028L473.83 325.32C466.993 328.776 458.471 333.066 444.858 333.47L444.746 333.47 444.363 333.47C444.336 333.47 444.308 333.463 444.285 333.463L444.285 403.626 415.353 758.369C413.471 781.454 430.662 801.687 453.736 803.566 476.814 805.445 497.054 788.271 498.936 765.186L524.13 456.293 547.876 456.293 573.071 765.186C574.953 788.274 595.192 805.448 618.27 803.566 641.345 801.69 658.536 781.461 656.653 758.373Z" fill="#8700E4" transform="matrix(1 0 0 1.00027 2488 2227.81)"/><path d="M612.308 76.305C612.308 118.447 578.145 152.61 536.003 152.61 493.861 152.61 459.698 118.447 459.698 76.305 459.698 34.1629 493.861-2.40969e-14 536.003-2.40969e-14 578.145-3.61453e-14 612.308 34.1629 612.308 76.305Z" fill="#8700E4" transform="matrix(1 0 0 1.00027 2488 2227.81)"/><path d="M390.6 254.906C390.627 267.844 393.255 280.667 399.058 292.496 404.82 304.236 414.221 315.292 427.579 322.027 433.042 324.812 439.15 326.022 444.363 326.022 444.454 326.022 444.549 326.022 444.648 326.019 458.033 325.625 465.572 321.051 472.84 317.479 493.842 306.044 513.607 291.861 545.76 291.716 550.847 291.716 556.253 292.092 562.083 292.964 576.899 295.192 590.716 284.984 592.944 270.167 595.168 255.34 584.967 241.537 570.144 239.309 561.672 238.034 553.54 237.451 545.764 237.451 512.746 237.39 486.771 248.137 468.658 257.724 460.041 262.265 452.994 266.542 448.086 269.184 447.961 268.956 447.835 268.719 447.71 268.471 446.889 266.837 446.17 264.758 445.658 262.418L452.505 258.131C456.134 256.059 460.455 253.607 465.182 251.121 492.055 236.901 518.331 229.99 545.489 229.99 554.127 229.99 562.71 230.641 571.27 231.926 580.172 233.269 587.748 237.936 593.001 244.451 601.693 248.286 609.317 252.366 616.283 256.293 617.402 256.931 618.477 257.548 619.515 258.141L626.362 262.425C625.85 264.758 625.127 266.837 624.3 268.471 624.174 268.716 624.056 268.953 623.93 269.173 620.949 267.552 617.056 265.331 612.624 262.794 608.605 260.529 604.05 258.026 599.001 255.499 600.608 260.437 601.161 265.796 600.333 271.269 597.868 287.636 583.845 300.048 567.434 300.669 576.326 304.535 584.411 309.161 592.374 313.708 596.969 316.309 601.541 318.894 606.879 321.247 612.217 323.506 618.525 325.917 627.379 326.022 627.451 326.022 627.525 326.022 627.596 326.022 632.843 326.022 638.961 324.808 644.428 322.031 657.806 315.272 667.187 304.223 672.955 292.492 678.758 280.66 681.386 267.851 681.413 254.899 681.359 235.837 675.638 215.858 661.845 199.397 649.057 183.875 628.278 173.141 604.522 172.11 603.538 171.998 602.541 171.927 601.524 171.927L470.5 171.927C469.489 171.927 468.495 171.998 467.512 172.11 443.752 173.148 422.967 183.881 410.185 199.393 396.382 215.862 390.651 235.857 390.6 254.906Z" fill="#8700E4" transform="matrix(1 0 0 1.00027 2488 2227.81)"/></g></svg>