<svg width="685" height="704" xmlns="http://www.w3.org/2000/svg" xmlns:xlink="http://www.w3.org/1999/xlink" xml:space="preserve" overflow="hidden"><g transform="translate(-3028 -2405)"><path d="M104.2 229.257 229.406 229.257C229.024 231.94 228.697 234.64 228.491 237.375 228.491 237.375 228.491 237.375 228.491 237.376 228.1 242.6 229.909 247.789 233.458 251.613 237.005 255.436 242.045 257.629 247.282 257.629L456.149 257.629C461.387 257.629 466.428 255.435 469.976 251.61 473.523 247.785 475.332 242.596 474.94 237.375 474.735 234.64 474.406 231.938 474.025 229.257L599.23 229.257C604.203 229.257 608.988 227.174 612.357 223.543 615.727 219.911 617.446 214.985 617.075 210.025 613.858 167.137 585.818 131.244 547.785 116.081 562.483 104.254 571.915 86.1351 571.915 65.844 571.917 30.2944 542.998 1.3739 507.45 1.3739 471.902 1.3739 442.981 30.2944 442.981 65.8426 442.981 86.1282 452.408 104.244 467.101 116.071 450.668 122.6 435.876 133.07 424.12 146.747 415.087 140.173 405.154 134.8 394.56 130.84 412.146 117.733 423.557 96.7814 423.557 73.2122 423.556 33.6 391.33 1.3739 351.717 1.3739 312.105 1.3739 279.879 33.6 279.879 73.2122 279.879 96.7814 291.291 117.733 308.877 130.84 298.283 134.8 288.349 140.175 279.316 146.747 267.559 133.07 252.769 122.6 236.335 116.071 251.027 104.244 260.455 86.1282 260.455 65.8426 260.454 30.2944 231.533 1.3739 195.985 1.3739 160.437 1.3739 131.518 30.2944 131.518 65.8426 131.518 86.1323 140.949 104.253 155.647 116.079 117.612 131.243 89.5739 167.136 86.3576 210.021 85.9853 214.979 87.7027 219.907 91.0715 223.538 94.4403 227.172 99.2256 229.257 104.2 229.257ZM464.964 65.8426C464.964 42.4163 484.022 23.3562 507.45 23.3562 530.878 23.3562 549.936 42.4163 549.936 65.8426 549.936 89.2648 530.885 108.321 507.464 108.329 507.46 108.329 507.456 108.329 507.45 108.329 507.445 108.329 507.439 108.329 507.434 108.329 484.013 108.319 464.964 89.2648 464.964 65.8426ZM507.434 130.311C507.439 130.311 507.445 130.311 507.45 130.311 507.454 130.311 507.46 130.311 507.464 130.311 551.738 130.318 589.237 163.778 594.717 207.274L468.8 207.274C462.889 189.834 453.18 174.156 440.695 161.184 457.376 141.713 481.706 130.315 507.434 130.311ZM301.862 73.2122C301.862 45.7205 324.226 23.3562 351.717 23.3562 379.209 23.3562 401.573 45.7205 401.573 73.2122 401.573 100.702 379.209 123.067 351.717 123.067 324.226 123.067 301.862 100.701 301.862 73.2122ZM452.713 235.647 250.722 235.647C256.276 184.573 299.996 145.049 351.717 145.049 403.439 145.049 447.158 184.572 452.713 235.647ZM153.5 65.8426C153.5 42.4163 172.559 23.3562 195.986 23.3562 219.414 23.3562 238.473 42.4163 238.473 65.8426 238.473 89.2634 219.422 108.319 196.003 108.329 195.997 108.329 195.992 108.329 195.986 108.329 195.982 108.329 195.978 108.329 195.973 108.329 172.55 108.322 153.5 89.2648 153.5 65.8426ZM195.973 130.311C195.977 130.311 195.981 130.311 195.986 130.311 195.992 130.311 195.997 130.311 196.003 130.311 221.73 130.315 246.062 141.713 262.743 161.184 250.259 174.156 240.55 189.834 234.638 207.274L108.721 207.274C114.2 163.778 151.699 130.318 195.973 130.311ZM692.919 524.415 645.604 286.905C644.401 280.866 640.906 275.648 635.765 272.214 630.625 268.782 624.469 267.554 618.424 268.756L557.538 280.886C551.499 282.09 546.281 285.584 542.847 290.725 539.414 295.866 538.185 302.025 539.389 308.065L539.925 310.753C503.551 322.77 459.36 326.13 404.4 280.787 379.153 259.959 346.251 259.278 322.525 279.086L297.965 299.593 164.13 299.593C162.531 290.469 155.515 282.801 145.9 280.886L85.0126 268.756C78.9729 267.551 72.8124 268.781 67.6726 272.214 62.5315 275.648 59.0363 280.866 57.8342 286.905L10.5158 524.414C9.31227 530.455 10.5405 536.612 13.9739 541.755 17.4059 546.896 22.624 550.39 28.6636 551.593L89.5506 563.723C91.0646 564.026 92.5841 564.174 94.0954 564.174 98.6128 564.174 103.039 562.84 106.892 560.267 112.033 556.833 115.528 551.617 116.73 545.576L116.916 544.647 260.969 688.697C269.894 697.622 281.617 702.084 293.341 702.083 305.064 702.083 316.786 697.621 325.711 688.697 331.736 682.674 335.868 675.247 337.811 667.139L357.529 686.856C375.38 704.704 404.424 704.702 422.273 686.855 428.433 680.693 432.47 673.194 434.377 665.285 442.9 673.403 454.062 677.86 465.938 677.859 478.193 677.859 489.69 673.11 498.31 664.491 508.147 654.652 512.561 641.413 511.555 628.523 512.741 628.614 513.935 628.659 515.137 628.659 527.391 628.659 538.888 623.911 547.509 615.29 559.545 603.255 563.682 585.294 558.784 569.315L586.012 542.089 586.706 545.576C587.908 551.617 591.403 556.833 596.544 560.267 600.398 562.84 604.822 564.174 609.341 564.174 610.852 564.174 612.372 564.026 613.884 563.723L674.771 551.593C680.811 550.39 686.029 546.896 689.462 541.755 692.894 536.612 694.123 530.455 692.919 524.415ZM94.6862 541.984C94.5035 542.105 94.2067 542.236 93.8467 542.164L32.9612 530.034C32.5984 529.961 32.3772 529.729 32.255 529.546 32.1327 529.364 32.0022 529.071 32.075 528.71L79.3906 291.199C79.4634 290.837 79.6956 290.618 79.877 290.495 80.0226 290.398 80.2424 290.295 80.509 290.295 80.5749 290.295 80.645 290.302 80.715 290.315L141.601 302.445C141.602 302.445 141.602 302.445 141.602 302.445 142.191 302.562 142.604 303.183 142.488 303.77L95.1726 541.281C95.1011 541.641 94.8689 541.862 94.6862 541.984ZM531.963 599.743C527.492 604.212 521.516 606.674 515.133 606.674 508.75 606.674 502.775 604.214 498.307 599.746L394.72 496.159C390.426 491.866 383.468 491.867 379.176 496.159 374.884 500.451 374.884 507.41 379.176 511.702L482.762 615.289C492.042 624.566 492.042 639.666 482.764 648.944 478.295 653.411 472.317 655.872 465.934 655.872 459.551 655.872 453.574 653.411 449.108 648.945L339.652 539.489C335.359 535.196 328.401 535.199 324.108 539.489 319.816 543.781 319.816 550.74 324.108 555.032L406.727 637.651 406.77 637.694C416.006 646.975 415.991 662.041 406.728 671.306 397.448 680.583 382.35 680.586 373.072 671.308L284.586 582.822C280.294 578.53 273.337 578.53 269.042 582.822 264.75 587.114 264.75 594.073 269.042 598.365L310.171 639.494C310.174 639.497 310.176 639.498 310.178 639.501 314.642 643.969 317.101 649.941 317.101 656.321 317.101 662.704 314.639 668.681 310.169 673.15 300.893 682.428 285.795 682.428 276.516 673.15L122.08 518.721 161.355 321.576 271.633 321.576 240.878 347.254C227.223 358.653 221.359 374.207 224.789 389.926L249.555 503.412C250.188 506.31 251.964 508.829 254.481 510.397 257 511.966 260.044 512.451 262.924 511.741 292.75 504.39 312.697 490.008 323.906 467.772 333.583 448.572 335.501 426.756 337.535 403.659 337.793 400.73 338.051 397.784 338.329 394.83 338.349 394.683 338.371 394.565 338.393 394.472 342.323 393.118 360.44 397.057 387.671 421.801L536.772 573.076C540.796 582.013 538.919 592.788 531.963 599.743ZM545.943 551.064 403.118 406.158C402.979 406.018 402.839 405.882 402.692 405.749 374.064 379.667 347.071 367.785 330.487 373.973 322.624 376.907 317.521 383.602 316.488 392.345 316.477 392.432 316.467 392.518 316.459 392.606 316.172 395.66 315.904 398.706 315.636 401.734 312.048 442.525 309.381 472.854 268.516 487.195L246.267 385.241C244.042 375.049 250.762 367.64 254.966 364.129L336.61 295.962C351.962 283.145 373.582 283.862 390.408 297.744 452.397 348.886 504.319 345.116 544.246 332.46L580.844 516.166 545.943 551.064ZM671.18 529.546C671.058 529.729 670.837 529.963 670.472 530.034L609.587 542.164C609.226 542.236 608.932 542.107 608.749 541.984 608.566 541.862 608.334 541.641 608.262 541.279L560.945 303.769C560.873 303.409 561.003 303.115 561.125 302.933 561.248 302.752 561.469 302.518 561.832 302.445 561.832 302.445 561.832 302.445 561.833 302.445L622.717 290.315C622.79 290.302 622.86 290.295 622.925 290.295 623.191 290.295 623.411 290.398 623.557 290.495 623.739 290.618 623.972 290.839 624.043 291.2L671.359 528.712C671.433 529.071 671.302 529.364 671.18 529.546Z" fill="#AD00FF" transform="matrix(1.00036 0 0 1 3018.65 2403.98)"/></g></svg>