<svg width="137" height="133" xmlns="http://www.w3.org/2000/svg" xmlns:xlink="http://www.w3.org/1999/xlink" xml:space="preserve" overflow="hidden"><g transform="translate(-1398 -2986)"><path d="M32.2917 24.7669 35.3966 32.9448C35.4899 33.1907 35.7073 33.3485 35.9699 33.3612L44.707 33.787C45.3013 33.816 45.5443 34.5644 45.0807 34.9373L38.2626 40.4173C38.0576 40.5822 37.9746 40.8374 38.0437 41.0912L40.3386 49.5324C40.4946 50.1065 39.858 50.569 39.3603 50.2432L32.0413 45.4522C31.8213 45.3081 31.5527 45.3081 31.3327 45.4522L24.014 50.2432C23.5163 50.569 22.8793 50.1065 23.0356 49.5324L25.3305 41.0912C25.3996 40.8374 25.3166 40.5822 25.1117 40.4173L18.2935 34.9373C17.8296 34.5647 18.0729 33.816 18.6673 33.787L27.4043 33.3612C27.6669 33.3485 27.8844 33.1907 27.9776 32.9448L31.0826 24.7669C31.292 24.2138 32.0816 24.2138 32.2917 24.7669L32.2917 24.7669ZM111.624 7.02026 114.729 15.1982C114.822 15.4441 115.039 15.6018 115.302 15.6146L124.039 16.0404C124.633 16.0694 124.876 16.8178 124.413 17.1907L117.594 22.671C117.39 22.8355 117.307 23.0911 117.376 23.3449L119.67 31.786C119.827 32.3602 119.19 32.8226 118.692 32.4969L111.373 27.7059C111.153 27.5618 110.885 27.5618 110.665 27.7059L103.346 32.4969C102.848 32.8226 102.212 32.3602 102.368 31.786L104.663 23.3449C104.732 23.0911 104.649 22.8358 104.444 22.671L97.6257 17.191C97.1618 16.8183 97.4051 16.0697 97.9995 16.0407L106.736 15.6149C106.999 15.6021 107.216 15.4444 107.31 15.1985L110.415 7.02055C110.624 6.46743 111.414 6.46743 111.624 7.02026L111.624 7.02026ZM127.948 49.7907 131.053 57.9687C131.146 58.2146 131.364 58.3726 131.626 58.3851L140.363 58.8109C140.958 58.8399 141.201 59.5882 140.737 59.9612L133.919 65.4412C133.714 65.606 133.631 65.8613 133.7 66.1151L135.995 74.5562C136.151 75.1304 135.514 75.5928 135.017 75.2671L127.698 70.4761C127.478 70.332 127.209 70.332 126.989 70.4761L119.67 75.2671C119.173 75.5928 118.536 75.1304 118.692 74.5562L120.987 66.1151C121.056 65.8613 120.973 65.606 120.768 65.4412L113.95 59.9612C113.486 59.5885 113.729 58.8399 114.324 58.8109L123.061 58.3851C123.324 58.3723 123.541 58.2146 123.634 57.9687L126.739 49.7907C126.948 49.2379 127.738 49.2379 127.948 49.7907L127.948 49.7907ZM18.7889 66.7384 21.8939 74.9164C21.9871 75.1622 22.2045 75.32 22.4672 75.3328L31.2042 75.7585C31.7983 75.7875 32.0416 76.5359 31.578 76.9088L24.7598 82.3888C24.5549 82.5537 24.4719 82.8089 24.5409 83.0627L26.8358 91.5039C26.9919 92.078 26.3552 92.5405 25.8575 92.2148L18.5385 87.4237C18.3185 87.2796 18.0499 87.2796 17.8299 87.4237L10.5109 92.2148C10.0132 92.5405 9.37655 92.078 9.5326 91.5039L11.8275 83.0627C11.8966 82.8089 11.8136 82.5537 11.6086 82.3888L4.79046 76.9088C4.32659 76.5362 4.56989 75.7875 5.16422 75.7585L13.9015 75.3328C14.1642 75.32 14.3813 75.1622 14.4748 74.9164L17.5798 66.7384C17.7893 66.1853 18.5792 66.1853 18.7889 66.7384L18.7889 66.7384ZM60.425 96.1784C61.8755 94.7279 64.2485 94.7279 65.6987 96.1784L69.477 99.9567 79.7003 89.7334C81.1504 88.2832 83.5238 88.2832 84.9739 89.7334 84.9739 90.083 87.5044 92.4765 84.9739 95.0073L72.1869 107.794C70.3379 109.643 67.8648 108.892 66.2251 107.252L60.425 101.452C58.9749 100.002 58.9749 97.6288 60.425 96.1784L60.425 96.1784ZM112.196 93.5975 106.246 91.3072C106.067 91.2384 105.944 91.0986 105.898 90.9124 105.079 87.5977 103.763 84.4268 101.998 81.5043 101.899 81.34 101.887 81.1544 101.965 80.979L104.554 75.148C104.652 74.9286 104.606 74.6841 104.437 74.5145L97.3724 67.4501C97.2025 67.2802 96.9583 67.235 96.7389 67.3325L90.9061 69.923C90.7308 70.0008 90.5452 69.9892 90.3809 69.89 87.459 68.1257 84.2889 66.81 80.9753 65.9906 80.7892 65.9445 80.6496 65.8215 80.5805 65.6424L78.2896 59.6906C78.2032 59.4663 77.9986 59.3259 77.7581 59.3259L67.7682 59.3259C67.528 59.3259 67.3231 59.4666 67.237 59.6906L64.9457 65.6427C64.8767 65.8218 64.7371 65.9448 64.5512 65.9909 61.2377 66.81 58.0676 68.1257 55.1457 69.8903 54.9814 69.9895 54.7958 70.0011 54.6204 69.9232L48.7874 67.3327C48.568 67.2352 48.3238 67.2804 48.1539 67.4504L41.0898 74.5147C40.9198 74.6844 40.8747 74.9289 40.9719 75.1483L43.5624 80.9805C43.6399 81.1558 43.6286 81.3417 43.5294 81.5057 41.7649 84.4279 40.4492 87.5982 39.6297 90.9118 39.5837 91.0983 39.4606 91.2376 39.2815 91.3064L33.3303 93.5973C33.106 93.6837 32.9656 93.8883 32.9656 94.1285L32.9656 104.119C32.9656 104.359 33.1063 104.564 33.3303 104.65L39.2807 106.94C39.4597 107.009 39.5825 107.148 39.6289 107.335 40.4483 110.649 41.764 113.82 43.5288 116.743 43.628 116.907 43.6397 117.093 43.5618 117.268L40.9719 123.099C40.8744 123.319 40.9196 123.563 41.0898 123.733L48.1541 130.797C48.3238 130.967 48.5683 131.012 48.7877 130.914L54.6207 128.324C54.7961 128.246 54.982 128.258 55.146 128.357 58.0679 130.121 61.2377 131.437 64.5515 132.256 64.7374 132.302 64.8773 132.425 64.946 132.605L67.2372 138.556C67.3234 138.781 67.5283 138.921 67.7685 138.921L77.7584 138.921C77.9989 138.921 78.2035 138.78 78.2899 138.556L80.5803 132.606C80.649 132.427 80.7886 132.304 80.9748 132.258 84.2895 131.439 87.4604 130.123 90.3829 128.358 90.5472 128.259 90.7328 128.247 90.9081 128.325L96.7389 130.915C96.9583 131.012 97.2028 130.967 97.3724 130.797L104.437 123.733C104.606 123.563 104.652 123.319 104.554 123.099L101.964 117.266C101.886 117.091 101.898 116.905 101.997 116.741 103.761 113.819 105.077 110.649 105.896 107.336 105.942 107.149 106.065 107.01 106.244 106.941L112.196 104.65C112.421 104.564 112.561 104.359 112.561 104.119L112.561 94.1288C112.561 93.8886 112.421 93.684 112.196 93.5975ZM72.6993 119.898C61.0253 119.898 51.5615 110.435 51.5615 98.7606 51.5615 87.0863 61.0253 77.6228 72.6993 77.6228 84.3736 77.6228 93.8374 87.0863 93.8374 98.7606 93.8374 110.435 84.3736 119.898 72.6993 119.898ZM72.6237 15.8937C64.5765 15.8937 58.0531 22.4174 58.0531 30.4646 58.0531 38.5104 64.5745 45.0333 72.62 45.0353 60.3074 45.0367 49.7996 52.7601 45.6739 63.6266 47.1184 62.6435 48.9994 62.4513 50.6338 63.177L54.6358 64.9543C56.8025 63.8029 59.0758 62.8601 61.4215 62.1409L62.9934 58.0577C63.7554 56.0783 65.6478 54.779 67.7688 54.779L77.7587 54.779C79.8796 54.779 81.7723 56.0785 82.5344 58.0579L84.1059 62.1409C86.4519 62.8603 88.7247 63.8031 90.8916 64.9543L94.8934 63.177C96.3913 62.5116 98.0967 62.6179 99.4832 63.3973 95.2973 52.6524 84.8528 45.037 72.6274 45.0353 80.6729 45.0333 87.1946 38.5107 87.1946 30.4646 87.1944 22.4172 80.6706 15.8937 72.6237 15.8937Z" fill="#FFFFFF" fill-rule="evenodd" transform="matrix(1 0 0 1.00413 1393.74 2979.49)"/></g></svg>