<svg width="789" height="576" xmlns="http://www.w3.org/2000/svg" xmlns:xlink="http://www.w3.org/1999/xlink" xml:space="preserve" overflow="hidden"><defs><clipPath id="clip0"><rect x="4919" y="1153" width="789" height="576"/></clipPath></defs><g clip-path="url(#clip0)" transform="translate(-4919 -1153)"><g><path d="M788.212-0.00760323 644.663 27.6301 696.897 50.5995 465.508 273.952 298.997 244.527 293.637 243.577 290.193 247.189 0 551.166 300.039 264.729 467.317 302.365 473.887 303.848 479.422 298.974 725.036 82.9588 740.372 138.128 788.212-0.00760323" fill="#AD00FF" transform="matrix(1.00113 0 0 1 4919 1153.42)"/></g><g><path d="M78.511 516.776 78.511 575.146 193.822 575.146 193.822 406.697 78.511 516.776" fill="#AD00FF" transform="matrix(1.00113 0 0 1 4919 1153.42)"/></g><g><path d="M300.039 305.3 251.469 351.665 251.469 575.146 366.78 575.146 366.78 320.316 300.039 305.3" fill="#AD00FF" transform="matrix(1.00113 0 0 1 4919 1153.42)"/></g><g><path d="M479.422 339.545 473.887 344.411 467.317 342.936 424.428 333.288 424.428 575.146 539.738 575.146 539.738 286.497 479.422 339.545" fill="#AD00FF" transform="matrix(1.00113 0 0 1 4919 1153.42)"/></g><g><path d="M597.386 235.799 597.386 575.146 712.696 575.146 712.696 134.387 597.386 235.799" fill="#AD00FF" transform="matrix(1.00113 0 0 1 4919 1153.42)"/></g></g></svg>