<svg width="131" height="61" xmlns="http://www.w3.org/2000/svg" xmlns:xlink="http://www.w3.org/1999/xlink" xml:space="preserve" overflow="hidden"><g transform="translate(-2665 -3019)"><path d="M62.404 29.0171C59.9105 31.5302 54.0671 37.3987 51.6769 39.8655 46.8963 44.8104 41.6514 49.6152 35.1679 52.2751 23.051 57.399 8.39872 51.0292 2.78841 39.3279-6.6354 20.0308 9.1405-2.04986 30.4304 0.152283 41.8912 1.54536 50.4165 10.0648 58.1114 17.7845 61.7208 21.3456 68.9364 28.5589 72.4943 32.1696 76.9455 36.6463 81.3785 41.6556 86.7035 44.9169 89.0821 46.3754 91.7369 47.6017 94.4609 48.0679 102.952 49.4957 111.822 44.6722 115.633 36.9741 122.351 23.7223 113.467 7.73196 98.7786 5.92067 93.9713 5.22011 89.1265 6.58035 84.9389 8.96632 80.5607 11.4048 76.8052 14.7659 73.2537 18.291 70.8172 20.6483 62.404 29.0171 62.404 29.0171ZM61.2633 27.8761C63.761 25.3639 69.5973 19.4938 71.9914 17.0286 75.5827 13.3236 79.3412 9.75864 83.7983 7.02174 87.5747 4.714 91.8795 3.01024 96.3679 2.86826 110.748 2.21599 123.218 14.0605 123.606 28.4466 124.295 44.9279 109.666 58.5457 93.2401 56.7206 85.4804 55.784 78.706 51.3749 73.0332 46.3068 70.3942 43.917 68.0603 41.5525 65.5585 39.106 58.8767 32.573 50.7323 24.193 44.1465 17.6619 39.5507 13.4128 34.4712 9.49303 28.2196 8.70619 22.9528 8.1637 17.603 9.84138 13.4794 13.2045 6.45672 18.7652 3.87339 28.9888 7.28928 37.3086 10.3543 45.3673 18.6168 51.0617 27.2679 51.1447 31.2894 51.2059 35.1602 49.9278 38.7271 47.9236 43.1047 45.4855 46.8618 42.1266 50.4126 38.6012 52.8485 36.2462 61.2633 27.8761 61.2633 27.8761" transform="matrix(1 0 0 1.00669 2671.67 3021.07)"/></g></svg>