<svg width="121" height="81" xmlns="http://www.w3.org/2000/svg" xmlns:xlink="http://www.w3.org/1999/xlink" xml:space="preserve" overflow="hidden"><defs><clipPath id="clip0"><rect x="3950" y="3012" width="121" height="81"/></clipPath></defs><g clip-path="url(#clip0)" transform="translate(-3950 -3012)"><path d="M119.227 27.9974C118.118 27.2492 116.715 27.102 115.464 27.6021 111.132 29.3445 102.031 32.2667 89.7437 32.2667 78.4846 32.2667 70.0671 29.3808 61.1554 26.3256 52.3244 23.2986 43.193 20.1667 31.2604 20.1667 16.5447 20.1667 6.15285 24.1294 2.36958 25.8335 0.929683 26.4788 0 27.9187 0 29.5079L0 89.661C0 91.0041 0.661467 92.2524 1.77063 93.0026 2.88383 93.7528 4.29147 93.9041 5.53777 93.3999 9.86957 91.6575 18.9708 88.7354 31.2583 88.7354 42.5174 88.7354 50.9349 91.6212 59.8466 94.6764 68.6776 97.7035 77.8091 100.835 89.7417 100.835 104.457 100.835 114.849 96.8726 118.632 95.1685 120.07 94.5252 121 93.0833 121 91.4962L121 31.343C121 29.9999 120.337 28.7496 119.225 27.9994ZM89.7437 96.8C78.4846 96.8 70.0671 93.9141 61.1554 90.8589 52.3244 87.8319 43.193 84.7 31.2604 84.7 18.2932 84.7 8.63738 87.8057 4.03535 89.6691L4.02123 29.5119C7.57057 27.9147 17.3272 24.2 31.2604 24.2 42.5194 24.2 50.937 27.0858 59.8486 30.1411 68.6796 33.1681 77.8111 36.3 89.7437 36.3 102.711 36.3 112.367 33.1943 116.969 31.341L116.983 91.4881C113.433 93.0853 103.677 96.8 89.7437 96.8Z" transform="matrix(1 0 0 1.00413 3950 2991.75)"/><path d="M109.336 50.2936C105.441 49.6826 102.249 46.825 101.2 43.0175 100.674 41.1057 98.8046 39.8392 96.8645 40.0288 94.5373 40.2325 92.1415 40.3354 89.7437 40.3354 77.0447 40.3354 67.637 37.0905 58.5337 33.9506 49.9669 31.0123 41.8741 28.2353 31.2604 28.2353 28.7355 28.2353 26.1542 28.3765 23.5849 28.6548 21.7921 28.8484 20.324 30.2258 20.0114 32.0045 19.2511 36.302 15.849 39.6094 11.5394 40.2305 9.56303 40.5168 8.06868 42.233 8.06868 44.2255L8.06868 66.55C8.06868 68.6272 9.58118 70.3756 11.6664 70.7084 15.5606 71.3194 18.753 74.177 19.8017 77.9845 20.326 79.8943 22.1813 81.1547 24.1375 80.9732 26.4647 80.7695 28.8605 80.6667 31.2583 80.6667 43.9573 80.6667 53.365 83.9115 62.4683 87.0514 71.0351 89.9897 79.1279 92.7667 89.7417 92.7667 92.2665 92.7667 94.8479 92.6255 97.4171 92.3472 99.2099 92.1536 100.678 90.7762 100.991 88.9975 101.751 84.7 105.153 81.3927 109.463 80.7715 111.439 80.4852 112.933 78.769 112.933 76.7765L112.933 54.452C112.933 52.3749 111.421 50.6264 109.336 50.2936ZM108.886 76.7806C102.85 77.6538 98.0826 82.282 96.9835 88.3381 94.5595 88.6002 92.1234 88.7333 89.7417 88.7333 79.7995 88.7333 72.0172 86.0633 63.7791 83.2359 54.8049 80.1403 44.6349 76.6333 31.2583 76.6333 28.7435 76.6333 26.2288 76.7422 23.6878 76.9137 22.2196 71.5796 17.7467 67.5785 12.2936 66.7234 12.2008 66.7073 12.1 66.6488 12.1 66.55L12.1141 44.2215C18.15 43.3483 22.9174 38.72 24.0165 32.664 26.4405 32.4018 28.8766 32.2687 31.2583 32.2687 41.2005 32.2687 48.9828 34.9388 57.2209 37.7661 66.1951 40.8617 76.3651 44.3687 89.7417 44.3687 92.2565 44.3687 94.7712 44.2598 97.3122 44.0884 98.7804 49.4225 103.253 53.4235 108.706 54.2786 108.799 54.2947 108.9 54.3532 108.9 54.452L108.886 76.7806Z" transform="matrix(1 0 0 1.00413 3950 2991.75)"/><path d="M27.225 46.3853C22.2216 46.3853 18.15 50.457 18.15 55.4604 18.15 60.4637 22.2216 64.5353 27.225 64.5353 32.2283 64.5353 36.3 60.4637 36.3 55.4604 36.3 50.457 32.2283 46.3853 27.225 46.3853ZM27.225 60.502C24.444 60.502 22.1833 58.2413 22.1833 55.4604 22.1833 52.6794 24.444 50.4187 27.225 50.4187 30.006 50.4187 32.2667 52.6794 32.2667 55.4604 32.2667 58.2413 30.006 60.502 27.225 60.502Z" transform="matrix(1 0 0 1.00413 3950 2991.75)"/><path d="M93.775 56.4687C88.7717 56.4687 84.7 60.5403 84.7 65.5437 84.7 70.547 88.7717 74.6187 93.775 74.6187 98.7784 74.6187 102.85 70.547 102.85 65.5437 102.85 60.5403 98.7784 56.4687 93.775 56.4687ZM93.775 70.5854C90.994 70.5854 88.7333 68.3247 88.7333 65.5437 88.7333 62.7627 90.994 60.502 93.775 60.502 96.556 60.502 98.8167 62.7627 98.8167 65.5437 98.8167 68.3247 96.556 70.5854 93.775 70.5854Z" transform="matrix(1 0 0 1.00413 3950 2991.75)"/><path d="M60.5 46.3853C52.7177 46.3853 46.3833 52.7197 46.3833 60.502 46.3833 68.2843 52.7177 74.6187 60.5 74.6187 68.2823 74.6187 74.6167 68.2843 74.6167 60.502 74.6167 52.7197 68.2823 46.3853 60.5 46.3853ZM60.5 70.5854C54.94 70.5854 50.4167 66.062 50.4167 60.502 50.4167 54.9421 54.94 50.4187 60.5 50.4187 66.06 50.4187 70.5833 54.9421 70.5833 60.502 70.5833 66.062 66.06 70.5854 60.5 70.5854Z" transform="matrix(1 0 0 1.00413 3950 2991.75)"/></g></svg>