<svg width="913" height="992" xmlns="http://www.w3.org/2000/svg" xmlns:xlink="http://www.w3.org/1999/xlink" xml:space="preserve" overflow="hidden"><defs><clipPath id="clip0"><rect x="4906" y="1126" width="913" height="992"/></clipPath><clipPath id="clip1"><path d="M5044.05 1126.2 5818.89 1248.92 5681.33 2117.52 4906.48 1994.8 5044.05 1126.2Z" fill-rule="evenodd" clip-rule="evenodd"/></clipPath><clipPath id="clip2"><path d="M4861.39 1097.27 5818.89 1248.92 5641.27 2370.44 4683.76 2218.8Z" fill-rule="evenodd" clip-rule="evenodd"/></clipPath><clipPath id="clip3"><path d="M4861.39 1097.27 5818.89 1248.92 5641.27 2370.44 4683.76 2218.8Z" fill-rule="evenodd" clip-rule="evenodd"/></clipPath></defs><g clip-path="url(#clip0)" transform="translate(-4906 -1126)"><g clip-path="url(#clip1)"><g clip-path="url(#clip2)"><g clip-path="url(#clip3)"><path d="M1484.84 1300.34 1484.84 1300.34C1497.14 1320.12 1498.94 1351.64 1490.23 1394.89L1490.24 1394.84C1487.69 1407.95 1481.57 1427.97 1471.9 1454.91L1471.82 1455.11C1452.54 1504.27 1439.5 1535.6 1432.71 1549.1L1432.83 1548.85C1428.46 1558.37 1414.08 1587.54 1389.68 1636.36L1389.59 1636.54 1355.6 1700.28C1355.1 1701.23 1354.4 1702.05 1353.55 1702.7L1353.55 1702.7C1344.18 1709.88 1324.87 1705.45 1295.64 1689.4 1292.01 1687.41 1290.69 1682.86 1292.68 1679.24 1294.67 1675.61 1299.22 1674.29 1302.84 1676.28L1302.84 1676.28C1326.37 1689.2 1340.24 1694.05 1344.45 1690.82L1342.39 1693.24 1376.39 1629.49 1376.3 1629.67C1400.62 1580.99 1414.93 1551.98 1419.22 1542.61L1419.34 1542.37C1425.92 1529.28 1438.77 1498.38 1457.89 1449.65L1457.81 1449.85C1467.23 1423.63 1473.14 1404.34 1475.54 1391.98L1475.55 1391.93C1483.48 1352.56 1482.34 1324.67 1472.13 1308.25 1469.95 1304.74 1471.02 1300.12 1474.53 1297.94 1478.04 1295.76 1482.66 1296.83 1484.84 1300.34Z" fill="#A400FF" transform="matrix(0.987689 0.15643 -0.156576 0.988611 4536.28 -266.034)"/><path d="M1473.47 1294.95 1473.47 1294.95C1450.36 1297.92 1424.81 1316.46 1396.81 1350.55L1396.85 1350.52C1388.31 1360.78 1376.66 1378.17 1361.91 1402.71L1361.8 1402.89C1335.9 1448.92 1319.88 1478.82 1313.71 1492.62L1313.83 1492.38C1309.22 1501.77 1295.71 1531.36 1273.31 1581.13L1273.24 1581.31 1245.34 1647.95C1244.93 1648.94 1244.73 1650 1244.77 1651.07L1244.77 1651.07C1245.13 1662.87 1260.77 1675.03 1291.69 1687.53 1295.52 1689.08 1299.88 1687.23 1301.43 1683.39 1302.98 1679.56 1301.13 1675.2 1297.3 1673.65L1297.3 1673.65C1272.41 1663.59 1259.89 1655.91 1259.73 1650.61L1259.15 1653.73 1287.04 1587.09 1286.96 1587.27C1309.29 1537.65 1322.73 1508.22 1327.26 1498.97L1327.38 1498.73C1333.36 1485.35 1349.18 1455.85 1374.84 1410.23L1374.73 1410.42C1389.09 1386.54 1400.3 1369.77 1408.35 1360.09L1408.38 1360.05C1433.87 1329.02 1456.2 1312.26 1475.38 1309.79 1479.48 1309.26 1482.37 1305.51 1481.85 1301.41 1481.32 1297.31 1477.57 1294.42 1473.47 1294.95Z" fill="#A400FF" transform="matrix(0.987689 0.15643 -0.156576 0.988611 4536.28 -266.034)"/><path d="M1426.21 1563.42 1426.21 1563.42C1428.19 1566.54 1433.94 1578.47 1443.47 1599.2L1443.42 1599.1C1444.81 1602 1448.43 1607.97 1454.27 1616.99 1454.47 1617.28 1454.64 1617.59 1454.78 1617.91L1454.78 1617.91C1457.52 1623.8 1457.45 1629.3 1454.58 1634.4L1454.97 1633.6C1453.88 1636.23 1451.62 1639.69 1448.21 1643.97L1448.03 1644.19 1422.03 1674.39 1422.07 1674.34C1418.14 1678.99 1411.09 1688.31 1400.93 1702.31L1400.7 1702.61C1399.74 1703.81 1398.79 1704.8 1397.86 1705.57L1397.87 1705.57C1397.37 1705.99 1396.86 1706.36 1396.35 1706.67L1396.68 1706.46C1393.53 1708.64 1390.03 1709.26 1386.17 1708.32L1386.17 1708.32C1384.56 1707.92 1382.94 1707.24 1381.32 1706.28L1386.26 1707.24C1384.3 1707.54 1382.37 1707.07 1380.45 1705.83L1380.45 1705.83C1378.25 1704.41 1372.15 1699.25 1362.14 1690.35 1359.06 1687.6 1358.78 1682.87 1361.53 1679.79 1364.28 1676.7 1369.01 1676.42 1372.09 1679.17L1372.09 1679.17C1381.52 1687.56 1387.01 1692.25 1388.56 1693.25L1388.56 1693.25C1387.3 1692.44 1385.78 1692.17 1384.01 1692.44 1385.72 1692.18 1387.46 1692.52 1388.95 1693.4L1388.95 1693.4C1389.31 1693.61 1389.57 1693.74 1389.74 1693.78L1389.74 1693.78C1389.22 1693.65 1388.69 1693.78 1388.14 1694.16L1388.47 1693.95C1388.38 1694.01 1388.3 1694.06 1388.26 1694.1L1388.26 1694.1C1388.43 1693.95 1388.69 1693.66 1389.04 1693.23L1388.81 1693.52C1399.19 1679.22 1406.47 1669.6 1410.64 1664.67L1410.68 1664.62 1436.69 1634.42 1436.51 1634.64C1439.04 1631.45 1440.59 1629.19 1441.15 1627.86 1441.26 1627.58 1441.39 1627.32 1441.54 1627.06L1441.54 1627.06C1441.9 1626.41 1441.79 1625.46 1441.21 1624.21L1441.71 1625.13C1435.52 1615.57 1431.59 1609.05 1429.92 1605.56L1429.87 1605.46C1420.61 1585.32 1415.18 1573.97 1413.56 1571.41 1411.35 1567.91 1412.4 1563.29 1415.89 1561.08 1419.39 1558.88 1424.01 1559.92 1426.21 1563.42Z" fill="#A400FF" transform="matrix(0.987689 0.15643 -0.156576 0.988611 4536.28 -266.034)"/><path d="M1306.73 1506.7 1306.73 1506.7C1303.06 1507.15 1290.18 1510.24 1268.09 1515.97L1268.21 1515.94C1265.08 1516.7 1258.17 1517.66 1247.48 1518.84 1247.13 1518.88 1246.79 1518.94 1246.45 1519.03L1246.45 1519.03C1240.15 1520.64 1235.93 1524.16 1233.8 1529.61L1234.17 1528.8C1232.83 1531.32 1231.57 1535.25 1230.41 1540.6L1230.36 1540.87 1223.4 1580.12 1223.41 1580.05C1222.3 1586.04 1219.53 1597.39 1215.11 1614.12L1215.02 1614.48C1214.7 1615.99 1214.54 1617.35 1214.52 1618.55L1214.52 1618.55C1214.51 1619.2 1214.55 1619.83 1214.63 1620.42L1214.58 1620.03C1214.88 1623.85 1216.62 1626.96 1219.79 1629.35L1219.79 1629.35C1221.11 1630.35 1222.66 1631.17 1224.44 1631.82L1220.57 1628.6C1221.57 1630.3 1223.16 1631.51 1225.33 1632.21L1225.33 1632.21C1227.82 1633.02 1235.68 1634.48 1248.9 1636.6 1252.98 1637.26 1256.82 1634.48 1257.47 1630.4 1258.13 1626.32 1255.35 1622.48 1251.27 1621.82L1251.27 1621.82C1238.81 1619.83 1231.7 1618.54 1229.94 1617.97L1229.94 1617.97C1231.37 1618.43 1232.54 1619.44 1233.46 1620.99 1232.58 1619.5 1231.21 1618.36 1229.58 1617.76L1229.58 1617.76C1229.2 1617.62 1228.93 1617.5 1228.8 1617.39L1228.8 1617.39C1229.22 1617.71 1229.46 1618.2 1229.51 1618.87L1229.47 1618.48C1229.48 1618.59 1229.49 1618.68 1229.49 1618.74L1229.49 1618.74C1229.49 1618.52 1229.55 1618.13 1229.67 1617.59L1229.58 1617.94C1234.1 1600.86 1236.94 1589.14 1238.13 1582.79L1238.14 1582.73 1245.1 1543.49 1245.04 1543.76C1245.9 1539.79 1246.68 1537.16 1247.36 1535.88 1247.5 1535.62 1247.63 1535.35 1247.74 1535.07L1247.74 1535.07C1248 1534.39 1248.81 1533.87 1250.15 1533.53L1249.12 1533.72C1260.44 1532.47 1267.98 1531.39 1271.73 1530.48L1271.85 1530.45C1293.3 1524.89 1305.53 1521.93 1308.54 1521.56 1312.64 1521.06 1315.56 1517.33 1315.06 1513.23 1314.56 1509.12 1310.83 1506.2 1306.73 1506.7Z" fill="#A400FF" transform="matrix(0.987689 0.15643 -0.156576 0.988611 4536.28 -266.034)"/><path d="M1347.84 1704.83 1347.84 1704.83C1322.94 1730.6 1303.09 1751.58 1288.28 1767.77L1288.06 1768 1273.25 1782.86 1272.94 1783.16C1266.86 1788.59 1259.29 1791.53 1250.21 1791.97 1246.08 1792.16 1242.58 1788.98 1242.38 1784.85 1242.18 1780.72 1245.37 1777.21 1249.49 1777.01L1249.49 1777.01C1255.03 1776.75 1259.52 1775.08 1262.95 1772.01L1262.64 1772.3 1277.46 1757.43 1277.24 1757.67C1292.14 1741.37 1312.09 1720.3 1337.08 1694.43 1339.95 1691.46 1344.69 1691.38 1347.66 1694.25 1350.63 1697.12 1350.71 1701.86 1347.84 1704.83Z" fill="#A400FF" transform="matrix(0.987689 0.15643 -0.156576 0.988611 4536.28 -266.034)"/><path d="M1246.72 1656.84 1246.72 1656.84C1242.5 1692.43 1238.8 1721.07 1235.62 1742.77L1235.58 1743.09 1233.44 1763.97 1233.41 1764.4C1233.03 1772.54 1235.55 1780.26 1240.95 1787.57 1243.41 1790.9 1248.09 1791.6 1251.42 1789.14 1254.74 1786.68 1255.44 1782 1252.99 1778.67L1252.99 1778.67C1249.69 1774.21 1248.15 1769.68 1248.36 1765.08L1248.33 1765.5 1250.47 1744.63 1250.43 1744.95C1253.63 1723.1 1257.35 1694.32 1261.59 1658.6 1262.07 1654.5 1259.14 1650.78 1255.04 1650.29 1250.93 1649.8 1247.21 1652.74 1246.72 1656.84Z" fill="#A400FF" transform="matrix(0.987689 0.15643 -0.156576 0.988611 4536.28 -266.034)"/><path d="M1390.39 1616.34 1390.39 1616.34C1388.53 1615.31 1386.16 1614.25 1383.27 1613.16L1383.24 1613.15C1379.61 1611.77 1372.65 1609.32 1362.34 1605.79L1362.2 1605.74C1358.04 1604.22 1355.11 1603.11 1353.4 1602.4L1353.51 1602.45C1347.5 1600.08 1340.05 1596.8 1331.18 1592.63 1327.44 1590.86 1325.84 1586.41 1327.6 1582.67 1329.36 1578.93 1333.82 1577.32 1337.56 1579.08L1337.56 1579.08C1346.14 1583.12 1353.29 1586.27 1359 1588.52L1359.12 1588.57C1360.63 1589.2 1363.37 1590.23 1367.33 1591.68L1367.19 1591.63C1377.65 1595.21 1384.77 1597.72 1388.56 1599.16L1388.54 1599.15C1392.13 1600.5 1395.18 1601.87 1397.68 1603.27 1401.29 1605.29 1402.58 1609.85 1400.57 1613.46 1398.56 1617.07 1394 1618.36 1390.39 1616.34Z" fill="#A400FF" transform="matrix(0.987689 0.15643 -0.156576 0.988611 4536.28 -266.034)"/><path d="M1288.38 1567.93 1288.38 1567.93C1290.35 1568.71 1292.68 1569.88 1295.35 1571.43L1295.37 1571.44C1298.73 1573.38 1305.04 1577.23 1314.28 1582.98L1314.41 1583.06C1318.22 1585.32 1320.94 1586.89 1322.57 1587.77L1322.46 1587.71C1328.1 1590.87 1335.34 1594.57 1344.19 1598.8 1347.92 1600.58 1352.39 1599.01 1354.17 1595.28 1355.95 1591.55 1354.38 1587.08 1350.65 1585.3L1350.65 1585.3C1342.09 1581.2 1335.13 1577.65 1329.77 1574.65L1329.66 1574.59C1328.22 1573.81 1325.68 1572.35 1322.06 1570.19L1322.19 1570.27C1312.8 1564.43 1306.36 1560.5 1302.85 1558.48L1302.87 1558.49C1299.55 1556.56 1296.56 1555.07 1293.89 1554.01 1290.05 1552.49 1285.7 1554.37 1284.17 1558.21 1282.65 1562.06 1284.53 1566.4 1288.38 1567.93Z" fill="#A400FF" transform="matrix(0.987689 0.15643 -0.156576 0.988611 4536.28 -266.034)"/><path d="M1406.92 1580.38 1406.82 1580.35 1406.82 1580.35 1406.92 1580.38C1393.12 1577.11 1382.48 1574.1 1375 1571.33L1375.03 1571.34C1371.29 1569.98 1368.14 1568.72 1365.58 1567.58L1365.94 1567.73C1365.85 1567.69 1365.77 1567.66 1365.68 1567.63L1365.69 1567.63C1364.68 1567.21 1360.34 1565.22 1352.67 1561.64L1352.77 1561.69C1348 1559.55 1344.3 1557.88 1341.66 1556.66 1337.9 1554.93 1336.26 1550.48 1337.99 1546.73 1339.72 1542.98 1344.17 1541.34 1347.92 1543.07L1347.92 1543.07C1350.53 1544.27 1354.19 1545.92 1358.89 1548.03L1358.99 1548.07C1366.46 1551.56 1370.59 1553.46 1371.39 1553.79L1371.39 1553.79C1371.37 1553.78 1371.35 1553.77 1371.31 1553.76L1371.67 1553.91C1373.92 1554.91 1376.75 1556.03 1380.16 1557.28L1380.2 1557.29C1387.11 1559.85 1397.16 1562.69 1410.36 1565.81L1410.46 1565.83 1410.46 1565.84C1414.39 1566.76 1416.88 1570.8 1415.93 1574.82 1414.98 1578.84 1410.94 1581.33 1406.92 1580.38Z" fill="#A400FF" transform="matrix(0.987689 0.15643 -0.156576 0.988611 4536.28 -266.034)"/><path d="M1305.79 1532.38 1305.86 1532.44 1305.87 1532.44 1305.79 1532.38C1317.04 1541 1326.1 1547.34 1332.98 1551.39L1332.95 1551.37C1336.37 1553.4 1339.34 1555.05 1341.84 1556.31L1341.5 1556.13C1341.58 1556.17 1341.66 1556.22 1341.74 1556.26L1341.74 1556.26C1342.69 1556.78 1346.98 1558.88 1354.6 1562.56L1354.5 1562.51C1359.17 1564.86 1362.82 1566.67 1365.43 1567.94 1369.14 1569.76 1373.62 1568.22 1375.44 1564.5 1377.25 1560.79 1375.71 1556.31 1372 1554.49L1372 1554.49C1369.42 1553.23 1365.82 1551.45 1361.22 1549.13L1361.12 1549.08C1353.7 1545.5 1349.61 1543.5 1348.85 1543.09L1348.85 1543.09C1348.87 1543.1 1348.89 1543.11 1348.92 1543.13L1348.58 1542.95C1346.38 1541.84 1343.72 1540.36 1340.6 1538.5L1340.57 1538.48C1334.22 1534.75 1325.66 1528.75 1314.9 1520.5L1314.82 1520.44 1314.81 1520.44C1311.61 1517.98 1306.91 1518.6 1304.4 1521.89 1301.88 1525.17 1302.51 1529.86 1305.79 1532.38Z" fill="#A400FF" transform="matrix(0.987689 0.15643 -0.156576 0.988611 4536.28 -266.034)"/><path d="M1435.93 1393.41 1435.93 1393.41C1452.77 1405.61 1456.68 1420.17 1447.64 1437.09L1447.47 1437.41C1442.75 1445.3 1436.55 1450.2 1428.86 1452.12L1428.89 1452.11C1420.98 1454.12 1412.85 1453.03 1404.52 1448.85 1400.82 1446.99 1399.33 1442.5 1401.18 1438.8 1403.04 1435.11 1407.53 1433.62 1411.23 1435.47L1411.23 1435.47C1416.24 1437.98 1420.9 1438.69 1425.21 1437.6L1425.24 1437.59C1428.91 1436.68 1432.03 1434.06 1434.62 1429.73L1434.44 1430.05C1439.38 1420.8 1436.95 1412.63 1427.15 1405.54 1423.8 1403.11 1423.05 1398.43 1425.48 1395.09 1427.9 1391.74 1432.58 1390.99 1435.93 1393.41Z" fill="#A400FF" transform="matrix(0.987689 0.15643 -0.156576 0.988611 4536.28 -266.034)"/><path d="M1432.29 1391.69 1432.29 1391.69C1412.19 1386.35 1398.44 1392.53 1391.04 1410.23L1390.91 1410.57C1387.78 1419.2 1387.9 1427.11 1391.28 1434.28L1391.27 1434.25C1394.72 1441.65 1400.7 1447.26 1409.2 1451.07 1412.98 1452.76 1417.4 1451.08 1419.09 1447.3 1420.79 1443.53 1419.1 1439.1 1415.33 1437.41L1415.33 1437.41C1410.21 1435.12 1406.71 1431.96 1404.83 1427.93L1404.82 1427.9C1403.21 1424.48 1403.27 1420.41 1404.98 1415.67L1404.85 1416C1408.89 1406.33 1416.76 1403.05 1428.45 1406.15 1432.44 1407.21 1436.54 1404.84 1437.6 1400.84 1438.66 1396.85 1436.28 1392.75 1432.29 1391.69Z" fill="#A400FF" transform="matrix(0.987689 0.15643 -0.156576 0.988611 4536.28 -266.034)"/><path d="M1246.46 1762.18 1246.32 1762.44C1171.1 1943.15 1112.59 2062.14 1070.8 2119.41 1009.5 2210.39 946.831 2278.26 882.799 2323.03 812.531 2376.55 740.862 2400.42 667.791 2394.64 629.986 2387.69 601.204 2374.33 581.446 2354.55 561.743 2332.36 552.191 2308.86 552.791 2284.05 548.697 2318.22 557.462 2344.73 579.086 2363.58 601.021 2384.38 632.68 2397.55 674.062 2403.08 746.642 2408.95 822.452 2381.31 901.492 2320.16 1047.69 2203.36 1162.68 2017.37 1246.46 1762.18" fill="#A400FF" transform="matrix(0.987689 0.15643 -0.156576 0.988611 4536.28 -266.034)"/><path d="M1219.24 1906.78 1216.55 1912.46C1187.52 1979.42 1171.83 2014.94 1169.47 2019.03 1161.93 2035.59 1150.34 2057.58 1134.7 2085 1109.07 2128.58 1075.02 2176.99 1032.56 2230.22L1070.61 2189C1078.78 2179.77 1087.11 2169.62 1095.61 2158.55 1110.42 2139.75 1127.62 2113.58 1147.2 2080.02 1165.27 2047.92 1180.6 2016.74 1193.18 1986.48 1197.94 1975.03 1201.67 1965.08 1204.39 1956.64L1219.24 1906.78" fill="#A400FF" transform="matrix(0.987689 0.15643 -0.156576 0.988611 4536.28 -266.034)"/><path d="M939.72 2241.17 938.565 2242.21C914.054 2268.75 881.919 2292.42 842.159 2313.23 814.828 2327.38 777.203 2338.52 729.285 2346.65 774.211 2346.25 812.884 2337.7 845.303 2321.02 891.178 2297.74 922.651 2271.13 939.72 2241.17" fill="#A400FF" transform="matrix(0.987689 0.15643 -0.156576 0.988611 4536.28 -266.034)"/><path d="M1181.91 1827.36 1181.61 1828.02C1175.86 1844.88 1165.3 1868.14 1149.93 1897.8 1143.11 1911.9 1126.13 1942.14 1098.99 1988.52 1098.86 1988.81 1098.96 1988.72 1099.28 1988.27L1101.54 1984.99C1105.93 1979.9 1110.61 1974.13 1115.57 1967.68 1120.53 1961.09 1125.13 1954.68 1129.37 1948.46 1138.91 1934.48 1146.83 1921.52 1153.14 1909.58 1162.19 1891.61 1169.62 1874.41 1175.42 1857.96 1180.67 1842.53 1182.83 1832.33 1181.91 1827.36" fill="#A400FF" transform="matrix(0.987689 0.15643 -0.156576 0.988611 4536.28 -266.034)"/><path d="M535.221 2362.06 536.318 2363.6C548.728 2377.96 565.406 2390.45 586.352 2401.08 606.569 2411.1 629.589 2418.77 655.411 2424.08 673.906 2427.25 694.445 2427.46 717.029 2424.72 735.551 2422.26 757.205 2416.46 781.993 2407.34L778.543 2408.2C772.927 2408.92 758.834 2411.17 736.265 2414.97 727.112 2416.31 720.094 2417.12 715.211 2417.4 689.638 2418.99 669.943 2418.44 656.124 2415.75 631.353 2410.12 610.327 2403.41 593.048 2395.62 574.21 2387.28 554.934 2376.1 535.221 2362.06" fill="#A400FF" transform="matrix(0.987689 0.15643 -0.156576 0.988611 4536.28 -266.034)"/></g></g></g></g></svg>