<svg width="2387" height="1853" xmlns="http://www.w3.org/2000/svg" xmlns:xlink="http://www.w3.org/1999/xlink" xml:space="preserve" overflow="hidden"><defs><clipPath id="clip0"><rect x="2026" y="480" width="2387" height="1853"/></clipPath></defs><g clip-path="url(#clip0)" transform="translate(-2026 -480)"><path d="M1091.24 1688.48C1085.86 1696.09 1080.11 1703.55 1073.9 1710.9 1064.31 1721.57 1053.46 1729.48 1041.34 1734.57 1029.21 1739.64 1017.54 1742.18 1006.24 1742.18 994.981 1742.18 984.824 1739.51 975.806 1734.15 966.788 1728.78 960.314 1721.02 956.346 1710.9 971.572 1695.08 992.702 1683.52 1019.78 1676.21 1046.85 1668.88 1075.59 1664.65 1106.04 1663.53 1101.51 1672.55 1096.57 1680.88 1091.24 1688.48ZM1271.81 1469.42C1276.87 1446.03 1281.53 1423.63 1285.76 1402.18 1289.97 1380.78 1294.07 1361.05 1298.02 1343 1299.14 1336.24 1301.25 1326.22 1304.35 1312.98 1307.46 1299.73 1311.14 1284.94 1315.36 1268.58 1319.59 1252.23 1324.22 1235.6 1329.31 1218.67 1334.38 1201.77 1339.73 1186.28 1345.37 1172.17 1351.01 1158.08 1356.92 1146.5 1363.14 1137.48 1369.33 1128.49 1375.54 1123.95 1381.75 1123.95 1381.75 1114.93 1378.64 1106.06 1372.45 1097.31 1366.24 1088.58 1358.78 1081.53 1350.02 1076.18 1341.27 1070.81 1332.12 1068 1322.55 1067.71 1312.95 1067.43 1304.78 1071.24 1298.02 1079.12 1288.42 1089.85 1280.67 1104.37 1274.77 1122.69 1268.84 1141.02 1263.05 1158.37 1257.41 1174.7 1253.47 1185.42 1247.98 1199.95 1240.94 1218.27 1233.87 1236.59 1225.97 1256.46 1217.24 1277.88 1208.51 1299.31 1199.07 1321.58 1188.92 1344.69 1178.78 1367.81 1168.9 1389.8 1159.32 1410.63 1149.73 1431.51 1140.43 1450.25 1131.41 1466.88 1122.39 1483.53 1114.78 1496.08 1108.57 1504.55 1097.86 1519.2 1090.53 1524.99 1086.58 1521.84 1082.64 1518.78 1081.21 1509.73 1082.35 1494.81 1083.49 1479.88 1086.58 1460.42 1091.67 1436.45 1096.72 1412.51 1102.93 1386.95 1110.26 1359.92 1117.59 1332.84 1125.77 1305.52 1134.79 1277.88 1143.81 1250.26 1152.67 1225.44 1161.42 1203.44 1170.18 1181.47 1178.47 1163.42 1186.39 1149.33 1194.27 1135.24 1200.76 1128.18 1205.83 1128.18 1203 1121.42 1197.65 1114.93 1189.77 1108.72 1181.87 1102.55 1172.97 1098.03 1163.13 1095.2 1153.24 1092.39 1143.52 1091.82 1133.95 1093.51 1124.37 1095.2 1116.75 1100.56 1111.11 1109.58 1104.91 1119.73 1098.28 1132.83 1091.24 1148.91 1084.19 1164.97 1076.86 1182.73 1069.25 1202.21 1061.64 1221.65 1054.16 1242.23 1046.85 1263.93 1039.5 1285.65 1032.74 1306.62 1026.53 1326.92 1021.47 1342.72 1016.95 1360.9 1013 1381.46 1009.07 1402.04 1006.81 1422.62 1006.24 1443.2 1005.69 1463.8 1007.09 1482.83 1010.47 1500.29 1013.85 1517.76 1020.61 1531.58 1030.77 1541.74 1036.41 1547.4 1043.45 1552.03 1051.92 1555.67 1060.39 1559.38 1069.36 1561.05 1078.97 1560.78 1088.56 1560.48 1098.13 1557.82 1107.73 1552.75 1117.3 1547.66 1126.04 1538.93 1133.95 1526.51 1140.71 1515.8 1147.34 1504.11 1153.81 1491.41 1160.3 1478.73 1166.36 1466.46 1172.02 1454.63 1177.64 1442.79 1182.57 1432.23 1186.81 1422.93 1191.04 1413.61 1193.98 1406.71 1195.69 1402.18 1187.23 1434.32 1177.92 1469.01 1167.78 1506.2 1157.63 1543.45 1145.21 1578.93 1130.55 1612.78 1110.83 1615.02 1091.52 1618.13 1072.63 1622.08 1053.74 1626.01 1036.12 1630.55 1019.78 1635.6 1003.43 1640.71 988.621 1646.46 975.369 1652.95 962.136 1659.43 951.277 1666.34 942.809 1673.67 936.05 1676.5 931.551 1681.7 929.273 1689.29 927.032 1696.94 926.463 1704.97 927.602 1713.4 929.273 1735.98 937.74 1756.69 952.947 1775.6 968.192 1794.47 986.513 1808.71 1007.95 1818.28 1029.34 1827.88 1051.92 1831.83 1075.59 1830.14 1099.29 1828.43 1120.4 1818.28 1139.02 1799.69 1153.68 1785.03 1167.22 1766.85 1179.63 1745.13 1192.01 1723.43 1203.31 1699.58 1213.44 1673.67 1228.1 1677.06 1241.77 1681.26 1254.47 1686.37 1267.15 1691.42 1277.99 1697.08 1287.03 1703.28 1296.05 1709.45 1302.81 1716.38 1307.33 1723.98 1311.83 1731.59 1313.52 1739.93 1312.4 1748.94 1327.62 1726.96 1336.07 1708.05 1337.76 1692.27 1339.47 1676.5 1336.2 1663.11 1328.04 1652.1 1319.88 1641.13 1307.46 1632.37 1290.83 1625.88 1274.2 1619.41 1255.44 1615.02 1234.59 1612.78 1241.9 1589.09 1248.66 1565.13 1254.89 1540.88 1261.08 1516.66 1266.74 1492.85 1271.81 1469.42" transform="matrix(1 0 0 1.00041 2029.47 480)"/><path d="M1635.87 1203.67C1634.46 1181.62 1629.11 1162.3 1619.81 1145.63 1610.5 1128.96 1597.52 1115.56 1580.9 1105.38 1564.25 1095.22 1544.66 1089.85 1522.13 1089.28 1506.9 1088.73 1494.64 1092.05 1485.33 1099.25 1476.03 1106.44 1468.97 1114.49 1464.18 1123.36 1459.4 1132.21 1457.12 1140.31 1457.42 1147.64 1457.71 1154.97 1460.08 1158.63 1464.6 1158.63 1469.69 1150.74 1476.03 1143.54 1483.62 1137.07 1491.26 1130.57 1500.41 1127.33 1511.13 1127.33 1525.79 1127.33 1535.36 1137.07 1539.88 1156.51 1544.38 1175.97 1545.38 1200.36 1542.84 1229.68 1540.29 1258.99 1534.94 1290.56 1526.78 1324.39 1518.59 1358.21 1509.29 1389.8 1498.87 1419.09 1488.41 1448.43 1477.57 1472.82 1466.31 1492.26 1455.01 1511.72 1444.86 1521.46 1435.86 1521.46 1429.08 1521.46 1425.57 1514.25 1425.28 1499.8 1425 1485.39 1426.99 1467.56 1431.21 1446.37 1435.44 1425.17 1441.21 1401.99 1448.54 1376.83 1455.87 1351.68 1463.77 1328.5 1472.21 1307.29 1480.68 1286.08 1489 1268.25 1497.18 1253.84 1505.34 1239.44 1512.52 1232.2 1518.75 1232.2 1517.04 1223.2 1513.53 1215.59 1508.15 1209.38 1502.8 1203.17 1496.17 1197.84 1488.29 1193.3 1474.19 1184.85 1460.94 1183.01 1448.54 1187.81 1436.12 1192.62 1424.86 1201.79 1414.71 1215.3 1404.55 1228.84 1395.27 1245.51 1386.82 1265.27 1378.35 1285.08 1371.29 1305.43 1365.67 1326.33 1358.91 1351.22 1354.11 1377.19 1351.3 1404.32 1348.47 1431.47 1349.3 1456.63 1353.82 1479.81 1358.34 1502.97 1367.49 1522.05 1381.31 1537.03 1395.11 1552.03 1415.28 1559.51 1441.78 1559.51 1451.92 1559.51 1462.78 1555.14 1474.34 1546.37 1485.88 1537.62 1497.73 1525.73 1509.86 1510.77 1521.97 1495.81 1533.82 1478.57 1545.38 1459.09 1556.93 1439.6 1567.92 1419.3 1578.38 1398.1 1588.78 1376.93 1598.24 1355.47 1606.71 1333.72 1615.14 1311.98 1622.2 1291.51 1627.84 1272.28 1634.61 1248.57 1637.27 1225.69 1635.87 1203.67" transform="matrix(1 0 0 1.00041 2029.47 480)"/><path d="M1999.53 1349.34C1994.73 1360.33 1989.09 1373.02 1982.61 1387.39 1976.12 1401.78 1968.94 1416.7 1961.07 1432.23 1953.15 1447.74 1945.12 1461.94 1936.95 1474.91 1928.77 1487.91 1920.59 1498.58 1912.43 1507.05 1904.24 1515.5 1897.07 1519.75 1890.86 1519.75 1884.1 1519.75 1881.14 1510.87 1881.97 1493.1 1882.81 1475.35 1886.21 1453.23 1892.13 1426.71 1898.03 1400.22 1905.51 1371.31 1914.53 1340.04 1923.55 1308.75 1932.85 1279.85 1942.44 1253.35 1952.03 1226.85 1961.18 1204.73 1969.93 1186.96 1978.67 1169.21 1985.58 1160.32 1990.64 1160.32 1990.64 1159.2 1988.82 1156.09 1985.16 1151 1981.49 1145.95 1976.71 1141.02 1970.77 1136.21 1964.86 1131.43 1958.09 1127.63 1950.47 1124.8 1942.86 1121.99 1934.83 1121.84 1926.38 1124.38 1917.91 1126.91 1909.33 1132.98 1900.58 1142.57 1891.83 1152.16 1883.51 1167.08 1875.63 1187.38 1871.11 1199.79 1864.77 1216.43 1856.61 1237.29 1848.43 1258.14 1839.41 1280.99 1829.55 1305.79 1819.66 1330.6 1809.11 1355.68 1797.83 1381.05 1786.53 1406.43 1775.69 1429.42 1765.27 1449.96 1754.81 1470.56 1745.24 1487.33 1736.51 1500.29 1727.76 1513.26 1720.58 1519.75 1714.94 1519.75 1708.18 1519.75 1705.64 1510.17 1707.33 1490.99 1709.04 1471.83 1713.12 1447.87 1719.59 1419.09 1726.08 1390.35 1734.53 1359.21 1744.98 1325.67 1755.4 1292.12 1765.97 1260.96 1776.68 1232.2 1787.39 1203.44 1797.55 1179.5 1807.13 1160.32 1816.7 1141.17 1824.05 1131.56 1829.12 1131.56 1826.86 1123.09 1820.94 1116.77 1811.35 1112.54 1801.76 1108.3 1791.34 1106.63 1780.08 1107.45 1768.78 1108.3 1757.66 1111.42 1746.67 1116.77 1735.65 1122.14 1727.62 1129.89 1722.55 1140.03 1718.04 1149.07 1712.83 1160.32 1706.91 1173.86 1700.99 1187.38 1694.91 1202.47 1688.74 1219.1 1682.51 1235.73 1676.32 1253.24 1670.14 1271.54 1663.91 1289.88 1657.98 1308.33 1652.37 1326.92 1647.85 1342.72 1643.63 1358.09 1639.66 1373.02 1635.73 1387.98 1632.35 1401.91 1629.53 1414.88 1623.34 1444.21 1624.02 1469.86 1631.63 1491.83 1639.25 1513.81 1649.97 1530.9 1663.78 1543.01 1677.6 1555.14 1692.67 1561.46 1709.04 1562.01 1725.38 1562.56 1738.9 1555.56 1749.63 1540.88 1754.7 1534.12 1759.9 1526.09 1765.27 1516.79 1770.61 1507.47 1775.41 1498.47 1779.64 1489.72 1783.88 1480.98 1787.67 1472.82 1791.05 1465.21 1794.43 1457.6 1796.98 1452.09 1798.67 1448.71 1795.84 1460.54 1795.99 1472.69 1799.08 1485.07 1802.2 1497.48 1807.25 1508.76 1814.31 1518.92 1821.37 1529.07 1829.95 1537.79 1840.11 1545.14 1850.25 1552.45 1860.84 1557.12 1871.83 1559.07 1882.81 1561.05 1893.69 1559.93 1904.39 1555.67 1915.08 1551.48 1924.69 1543.14 1933.14 1530.73 1943.3 1516.11 1953.85 1498.03 1964.86 1476.62 1975.86 1455.18 1985.84 1434.19 1994.88 1413.61 2003.9 1393.03 2011.79 1374.57 2018.55 1358.21 2025.31 1341.88 2029.55 1331.44 2031.25 1326.92L2009.27 1326.92C2007.56 1330.87 2004.31 1338.33 1999.53 1349.34" transform="matrix(1 0 0 1.00041 2029.47 480)"/><g><path d="M2143.72 1692.27C2129.05 1690.03 2115.38 1692.14 2102.72 1698.61 2090.01 1705.11 2079.29 1713.82 2070.57 1724.83 2061.82 1735.84 2055.19 1748.22 2050.7 1762.04 2046.18 1775.86 2044.47 1788.98 2045.61 1801.36 2046.75 1813.78 2050.98 1824.66 2058.31 1833.92 2065.62 1843.22 2076.91 1849.01 2092.14 1851.27 2107.9 1853.51 2122.16 1851.41 2134.84 1844.93 2147.52 1838.44 2158.38 1829.71 2167.4 1818.7 2176.42 1807.72 2183.04 1795.46 2187.28 1781.94 2191.49 1768.4 2192.9 1755.28 2191.49 1742.6 2190.09 1729.9 2185.59 1718.93 2177.97 1709.62 2170.36 1700.3 2158.93 1694.53 2143.72 1692.27" transform="matrix(1 0 0 1.00041 2029.47 480)"/></g><path d="M2351.35 841.902C2332.46 828.67 2301.3 826.258 2257.9 834.726L2257.9 837.251C2265.78 842.909 2269.03 854.471 2267.62 871.918 2266.22 889.404 2261.83 910.99 2254.52 936.62 2247.17 962.288 2237.74 991.165 2226.18 1023.31 2214.61 1055.45 2202.22 1089.43 2188.97 1125.24 2175.71 1161.04 2162.75 1197.53 2150.06 1234.75 2137.38 1271.96 2126.24 1308.47 2116.65 1344.27 2107.06 1380.06 2099.87 1414.18 2095.08 1446.6 2090.3 1479.03 2089.44 1508.19 2092.56 1534.12 2095.63 1560.06 2103.55 1581.91 2116.23 1599.68 2128.91 1617.41 2147.94 1629.39 2173.32 1635.6L2174.18 1632.24C2164.57 1610.24 2163.3 1581.06 2170.36 1544.7 2177.4 1508.32 2188.81 1468.02 2204.61 1423.76 2220.39 1379.51 2238.73 1333.15 2259.57 1284.64 2280.44 1236.17 2300.18 1188.65 2318.79 1142.14 2337.39 1095.62 2352.75 1051.78 2364.88 1010.64 2377 969.483 2382.48 934.399 2381.38 905.332 2380.22 876.304 2370.24 855.173 2351.35 841.902" transform="matrix(1 0 0 1.00041 2029.47 480)"/><path d="M2094.55 811.526C2106.23 789.047 2117.05 766.721 2126.98 744.565 2136.91 722.409 2145.6 701.468 2153.04 681.724 2160.49 661.998 2166.33 646.601 2170.59 635.532L2141.86 635.532C2138.31 645.215 2132.1 660.441 2123.26 681.211 2114.37 701.981 2104.12 722.58 2092.43 742.989 2080.73 763.417 2067.95 780.903 2054.13 795.445 2040.29 809.988 2026.28 815.874 2012.1 813.102 1999.36 810.349 1987.11 801.843 1975.42 787.661 1963.74 773.46 1953.45 757.38 1944.59 739.363 1935.72 721.365 1928.11 703.386 1921.73 685.369 1915.33 667.371 1910.72 653.17 1907.89 642.785 1927.03 637.26 1949.01 628.603 1973.82 616.832 1998.66 605.061 2022.56 591.221 2045.61 575.273 2068.66 559.382 2089.39 542.068 2107.84 523.367 2126.26 504.667 2139.03 485.644 2146.12 466.241 2153.92 445.49 2153.92 428.004 2146.12 413.803 2138.31 399.621 2128.38 388.192 2116.37 379.535 2104.27 370.878 2092.43 364.992 2080.73 361.897 2069.04 358.765 2063.15 357.55 2063.15 358.252 2062.47 372.112 2060.51 388.192 2057.32 406.532 2054.13 424.891 2046.5 444.085 2034.44 464.171 2022.39 484.258 2004.5 504.838 1980.75 525.968 1956.96 547.099 1923.85 567.337 1881.33 586.702L1896.19 542.068C1911.1 497.756 1925.07 456.558 1938.19 418.474 1951.33 380.408 1964.79 343.026 1978.63 306.328 1992.45 269.629 2006.82 232.437 2021.7 194.694 2036.57 156.97 2053.58 116.285 2072.72 72.6757 2059.98 72.6757 2045.78 71.9922 2030.19 70.6063 2014.59 69.2014 1999.36 69.0305 1984.47 70.0747 1969.59 71.0999 1955.92 74.2135 1943.52 79.4154 1931.11 84.6174 1922.05 93.7873 1916.41 106.944 1917.1 103.489 1914.46 109.887 1908.44 126.157 1902.4 142.428 1894.24 165.096 1883.99 194.162 1873.7 223.248 1861.98 257.004 1848.86 295.411 1835.74 333.837 1822.44 373.137 1808.99 413.272 1795.51 453.444 1782.57 493.086 1770.17 532.176 1757.75 571.305 1747.31 605.744 1738.81 635.532 1736.68 640.374 1732.77 649.543 1727.11 663.042 1721.41 676.541 1714.33 692.108 1705.83 709.765 1697.32 727.421 1688.1 745.951 1678.19 765.316 1668.24 784.719 1658.14 802.546 1647.87 818.797 1637.58 835.087 1627.48 848.414 1617.57 858.799 1607.62 869.165 1598.77 874.348 1590.97 874.348 1586.01 874.348 1583.7 868.14 1584.06 855.667 1584.42 843.212 1586.52 826.942 1590.44 806.856 1594.33 786.788 1600 764.291 1607.45 739.363 1614.89 714.454 1622.86 689.508 1631.37 664.599 1639.89 639.671 1648.76 616.3 1657.98 594.505 1667.17 572.672 1676.06 554.522 1684.56 539.979 1695.9 520.595 1697.13 503.11 1688.29 487.542 1679.4 471.955 1665.94 460.013 1647.87 451.698 1629.79 443.401 1610.65 439.775 1590.44 440.819 1570.23 441.844 1554.82 448.945 1544.17 462.083 1530.69 479.397 1514.93 502.768 1496.84 532.176 1478.76 561.623 1461.22 591.373 1444.21 621.502 1427.2 651.613 1412.13 678.971 1399.01 703.538 1385.89 728.124 1377.21 744.223 1372.94 751.836 1393.5 698.526 1416.55 645.917 1442.07 593.974 1467.6 542.068 1490.63 489.08 1511.19 435.105 1517.59 419.879 1523.61 406.722 1529.28 395.615 1534.96 384.566 1539.55 376.592 1543.1 371.751 1530.35 371.751 1516.87 370.878 1502.69 369.15 1488.5 367.422 1475.04 366.91 1462.28 367.593 1449.51 368.296 1437.83 371.238 1427.2 376.421 1416.55 381.604 1408.4 390.793 1402.73 403.931 1390.67 433.016 1376.15 468.329 1359.14 509.85 1342.11 551.409 1325.78 593.29 1310.19 635.532 1310.17 635.57 1310.17 635.627 1310.16 635.684 1304.48 648.12 1296.69 665.016 1286.82 686.413 1276.87 707.866 1266.07 730.003 1254.38 752.861 1242.68 775.701 1230.63 797.173 1218.21 817.24 1205.79 837.327 1194.29 851.87 1183.66 860.869 1169.46 873.323 1159.2 878.183 1152.81 875.392 1146.45 872.64 1143.24 864.666 1143.24 851.509 1143.24 838.371 1145.53 821.227 1150.17 800.116 1154.76 779.004 1160.8 756.336 1168.24 732.11 1175.68 707.866 1183.83 683.299 1192.69 658.372 1201.56 633.444 1210.24 610.605 1218.76 589.835 1227.27 569.065 1234.71 551.409 1241.09 536.866 1247.47 522.323 1251.72 513.343 1253.84 509.85 1238.94 509.85 1224.95 508.825 1211.85 506.755 1198.71 504.667 1186.31 504.154 1174.62 505.179 1162.92 506.224 1152.29 509.698 1142.71 515.564 1133.16 521.469 1124.8 532.044 1117.72 547.251L975.217 831.783C960.314 856.027 948.789 867.457 940.645 866.052 932.481 864.666 928.76 853.597 929.462 832.827 930.165 813.443 934.266 790.091 941.708 762.715 949.15 735.376 958.719 707.335 970.433 678.629 982.128 649.885 995.417 621.673 1010.3 593.974 1025.19 566.293 1040.07 542.41 1054.97 522.323 1064.88 509.185 1078.38 494.643 1095.39 478.714 1112.4 462.804 1129.59 450.331 1146.96 441.313 1164.33 432.333 1180.28 429.029 1194.82 431.46 1209.34 433.89 1219.8 446.173 1226.2 468.329 1233.99 442.015 1234.52 419.879 1227.8 401.861 1221.04 383.863 1209.7 370.365 1193.76 361.366 1177.81 352.367 1158.84 347.848 1136.86 347.848 1114.87 347.848 1092.89 353.05 1070.92 363.435 1046.11 373.82 1022.34 388.534 999.651 407.576 976.964 426.618 955.529 448.432 935.31 472.999 915.11 497.585 897.036 523.728 881.088 551.409 865.14 579.108 851.832 607.149 841.2 635.532 839.776 638.304 835.694 645.917 828.973 658.372 822.234 670.826 813.899 685.54 803.989 702.493 794.04 719.485 783.409 737.464 772.074 756.507 760.721 775.549 749.558 793.034 738.584 808.944 727.573 824.873 717.473 838.029 708.265 848.414 699.038 858.799 691.938 863.982 687.001 863.982 682.749 863.982 681.306 857.584 682.749 844.769 684.154 831.973 687.533 815.361 692.849 794.933 698.165 774.505 704.715 750.963 712.518 724.307 720.302 697.671 728.636 670.484 737.521 642.785 746.368 615.104 755.064 587.917 763.569 561.262 772.074 534.645 779.877 510.894 786.978 490.124 798.312 454.811 799.015 425.745 789.085 402.887 779.156 380.066 764.272 364.138 744.432 355.12 724.573 346.14 702.949 344.412 679.54 349.937 656.169 355.48 636.652 368.998 621.066 390.432 609.01 407.063 596.233 426.96 582.772 450.16 569.293 473.36 555.832 497.927 542.353 523.88 528.873 549.852 515.925 576.165 503.547 602.802 491.13 629.457 479.606 654.556 468.974 678.097 458.343 701.639 449.306 722.219 441.863 739.894 434.402 757.551 428.897 770.518 425.384 778.814 448.774 704.753 470.379 637.602 490.238 577.38 510.078 517.121 529.765 459.862 549.282 405.488 568.761 351.152 589.151 297.499 610.415 244.53 622.717 213.926 635.931 181.727 649.657 148.693 656.017 148.218 662.89 148.199 668.908 147.44 718.536 141.213 759.316 129.954 791.212 113.703 823.126 97.4325 848.111 80.8204 866.185 63.8475 884.278 46.8937 896.143 32.0092 901.82 19.1941 907.497 6.37906 908.901-0.0189853 906.073-0.0189853 896.865 0.664486 888.701 3.79706 881.601 9.32177 874.519 14.8845 866.014 21.0927 856.084 28.0033 846.155 34.9519 833.587 41.5208 818.342 47.748 803.077 53.9752 782.877 58.3038 757.722 60.7339 732.547 63.164 700.994 62.6514 663.061 59.1771 625.109 55.7218 578.861 47.748 524.279 35.2936 437.079 15.2072 361.385 7.25238 297.215 11.4102 233.044 15.5489 179.506 27.5097 136.618 47.2354 93.7114 66.9611 61.2655 92.0596 39.2995 122.512 17.3336 152.983 4.55647 184.309 1.02521 216.489-2.52504 248.688 3.15156 279.501 18.036 308.929 32.9205 338.356 55.9686 361.727 87.1614 379.022 83.6112 369.34 82.2063 355.651 82.9087 337.995 83.6112 320.339 85.7375 301.999 89.2878 282.957 92.838 263.914 97.6223 245.916 103.66 228.963 109.678 212.009 116.228 199.023 123.328 190.024 144.592 163.008 174.38 145.541 212.654 137.567 250.947 129.613 292.772 126.67 338.166 128.758 323.965 158.527 308.91 191.41 292.962 227.406 276.995 263.421 261.067 300.974 245.1 340.064 229.152 379.193 213.736 419.176 198.833 460.013 183.948 500.87 170.469 541.024 158.413 580.475 146.358 619.945 136.257 657.688 128.113 693.684 119.949 729.68 114.462 762.582 111.633 792.332 110.191 804.786 112.526 818.645 118.544 833.853 124.562 849.098 132.897 863.299 143.529 876.437 154.179 889.593 166.216 900.681 179.696 909.68 193.156 918.679 206.636 923.159 220.096 923.159 219.394 896.181 222.052 862.786 228.089 822.955 234.089 783.143 242.974 739.894 254.669 693.153 266.364 646.411 280.204 597.79 296.151 547.251 312.118 496.712 329.3 446.876 347.734 397.704 366.169 348.57 385.477 301.828 405.678 257.516 425.897 213.205 445.926 173.753 465.785 139.143 483.935 140.776 501.629 142.333 518.963 143.814 514.121 155.679 508.502 169.709 501.952 186.379 492.004 211.667 480.499 241.417 467.38 275.704 454.261 309.954 440.952 346.823 427.511 386.275 414.031 425.745 400.533 466.753 387.091 509.337 373.611 551.921 361.556 593.974 350.924 635.532 343.14 667.371 336.21 698.715 330.192 729.509 324.174 760.304 319.731 789.218 316.902 816.196 316.902 826.581 320.453 838.371 327.534 851.509 334.635 864.666 343.653 876.949 354.645 888.378 365.638 899.807 377.503 909.338 390.28 916.951 403.039 924.564 415.094 928.001 426.447 927.336L426.447 925.248C427.852 925.931 430.32 926.292 433.89 926.292 438.142 915.907 446.116 897.036 457.811 869.697 469.506 842.358 483.327 810.861 499.294 775.188 515.242 739.553 532.271 701.829 550.345 661.998 568.419 622.205 585.772 584.823 602.441 549.852 619.091 514.881 634.526 484.409 648.708 458.457 662.89 432.504 674.243 415.379 682.749 407.063 678.496 419.518 672.649 436.643 665.187 458.457 657.745 480.271 649.771 504.154 641.266 530.107 632.76 556.079 624.065 583.247 615.199 611.63 606.333 640.032 598.359 667.542 591.278 694.197 584.196 720.852 578.33 745.248 573.735 767.404 569.122 789.56 566.825 807.558 566.825 821.398 566.825 838.732 570.014 853.939 576.393 867.096 582.772 880.253 591.278 891.169 601.909 899.807 612.56 908.484 624.597 915.034 638.076 919.533 651.537 924.033 665.738 926.292 680.603 926.292 690.533 926.292 701.715 919.894 714.112 907.079 726.51 894.283 739.458 877.993 752.937 858.268 766.398 838.542 779.688 816.899 792.806 793.357 800.723 779.175 807.482 766.075 814.62 752.634 813.975 764.328 813.918 776.137 815.133 788.155 816.918 805.489 820.829 821.569 826.847 836.454 832.865 851.376 841.048 864.856 851.319 876.949 861.59 889.081 874.519 898.611 890.125 905.522 909.281 913.838 926.634 916.78 942.24 914.35 957.826 911.939 971.838 905.883 984.235 896.181 996.632 886.499 1007.81 874.025 1017.74 858.799 1027.67 843.573 1036.52 827.625 1044.34 811.013 1042.9 822.101 1043.96 833.53 1047.53 845.301 1051.06 857.072 1056.74 868.14 1064.54 878.525 1072.33 888.91 1081.72 897.738 1092.72 904.99 1103.71 912.262 1115.59 917.293 1128.35 920.046 1143.94 922.818 1159.36 919.381 1174.62 909.68 1189.86 899.978 1204.56 886.309 1218.76 868.653 1232.92 850.996 1246.4 831.119 1259.16 808.944 1259.37 808.583 1259.5 808.26 1259.71 807.919 1259.48 810.729 1259.14 813.728 1259.14 816.196 1259.14 827.303 1261.12 839.225 1264.99 852.041 1268.9 864.856 1274.41 876.797 1281.49 887.866 1288.59 898.953 1297.26 908.104 1307.54 915.375 1317.81 922.647 1329.35 926.292 1342.11 926.292 1347.06 917.293 1355.74 901.364 1368.16 878.525 1380.55 855.667 1394.92 829.714 1411.23 800.647 1427.54 771.562 1444.74 740.749 1462.82 708.208 1480.89 675.686 1498.45 645.044 1515.46 616.3 1532.47 587.594 1547.89 562.306 1561.73 540.492 1575.55 518.697 1586.35 504.002 1594.16 496.37 1584.93 513.685 1573.58 537.056 1560.12 566.464 1546.66 595.891 1533.54 626.514 1520.78 658.372 1508.02 690.21 1497.01 721.023 1487.82 750.792 1478.59 780.561 1473.98 804.444 1473.98 822.442 1473.98 839.055 1477.7 853.787 1485.14 866.583 1492.6 879.379 1502.32 890.296 1514.4 899.295 1526.45 908.294 1540.09 915.034 1555.33 919.533 1570.58 924.033 1586.01 926.292 1601.6 926.292 1609.4 926.292 1618.78 919.723 1629.79 906.566 1640.77 893.409 1652.29 876.949 1664.34 857.224 1676.4 837.498 1688.29 815.703 1699.98 791.8 1701.12 789.484 1702.01 787.453 1703.13 785.155 1702.68 788.857 1701.92 792.901 1701.57 796.471 1699.45 815.171 1702.11 832.486 1709.55 848.414 1716.99 864.324 1727.11 877.993 1739.87 889.404 1752.63 900.852 1767.32 909.851 1784.01 916.42 1800.64 922.989 1817.86 926.292 1835.57 926.292 1826.37 918.679 1820.86 905.522 1819.09 886.841 1817.31 868.14 1817.5 847.37 1819.63 824.512 1821.75 814.127 1823.71 804.976 1825.47 797.002 1827.22 789.047 1829 781.263 1830.79 773.631 1832.55 766.018 1834.51 757.703 1836.64 748.704 1838.78 739.724 1841.59 728.636 1845.14 715.479 1842.29 746.634 1846.38 777.789 1857.37 808.944 1868.36 840.099 1886.62 866.412 1912.16 887.866 1938.36 910.022 1963.02 920.406 1986.07 919.021 2009.1 917.635 2032.68 901.725 2056.79 871.254 2070.25 853.939 2082.86 834.042 2094.55 811.526" transform="matrix(1 0 0 1.00041 2029.47 480)"/></g></svg>